<?xml version="1.0" encoding="utf-8" standalone="no"?>
<!DOCTYPE svg PUBLIC "-//W3C//DTD SVG 1.1//EN"
  "http://www.w3.org/Graphics/SVG/1.1/DTD/svg11.dtd">
<!-- Created with matplotlib (http://matplotlib.org/) -->
<svg height="864pt" version="1.1" viewBox="0 0 576 864" width="576pt" xmlns="http://www.w3.org/2000/svg" xmlns:xlink="http://www.w3.org/1999/xlink">
 <defs>
  <style type="text/css">
*{stroke-linecap:butt;stroke-linejoin:round;}
  </style>
 </defs>
 <g id="figure_1">
  <g id="patch_1">
   <path d="M 0 864 
L 576 864 
L 576 0 
L 0 0 
z
" style="fill:#ffffff;"/>
  </g>
  <g id="axes_1">
   <g id="patch_2">
    <path d="M 72 216.148966 
L 203.294118 216.148966 
L 203.294118 103.68 
L 72 103.68 
z
" style="fill:#ffffff;"/>
   </g>
   <g id="patch_3">
    <path clip-path="url(#pa6ec3bded0)" d="M 77.967914 216.148966 
L 117.754011 216.148966 
L 117.754011 199.738561 
L 77.967914 199.738561 
z
" style="fill:#00008b;"/>
   </g>
   <g id="patch_4">
    <path clip-path="url(#pa6ec3bded0)" d="M 117.754011 216.148966 
L 157.540107 216.148966 
L 157.540107 192.333079 
L 117.754011 192.333079 
z
" style="fill:#1e90ff;"/>
   </g>
   <g id="patch_5">
    <path clip-path="url(#pa6ec3bded0)" d="M 157.540107 216.148966 
L 197.326203 216.148966 
L 197.326203 185.57452 
L 157.540107 185.57452 
z
" style="fill:#40e0d0;"/>
   </g>
   <g id="patch_6">
    <path clip-path="url(#pa6ec3bded0)" d="M 77.967914 216.148966 
L 117.754011 216.148966 
L 117.754011 199.738561 
L 77.967914 199.738561 
z
" style="fill:#00008b;"/>
   </g>
   <g id="patch_7">
    <path clip-path="url(#pa6ec3bded0)" d="M 117.754011 216.148966 
L 157.540107 216.148966 
L 157.540107 192.333079 
L 117.754011 192.333079 
z
" style="fill:#1e90ff;"/>
   </g>
   <g id="patch_8">
    <path clip-path="url(#pa6ec3bded0)" d="M 157.540107 216.148966 
L 197.326203 216.148966 
L 197.326203 185.57452 
L 157.540107 185.57452 
z
" style="fill:#40e0d0;"/>
   </g>
   <g id="patch_9">
    <path clip-path="url(#pa6ec3bded0)" d="M 77.967914 216.148966 
L 117.754011 216.148966 
L 117.754011 199.738561 
L 77.967914 199.738561 
z
" style="fill:#00008b;"/>
   </g>
   <g id="patch_10">
    <path clip-path="url(#pa6ec3bded0)" d="M 117.754011 216.148966 
L 157.540107 216.148966 
L 157.540107 192.333079 
L 117.754011 192.333079 
z
" style="fill:#1e90ff;"/>
   </g>
   <g id="patch_11">
    <path clip-path="url(#pa6ec3bded0)" d="M 157.540107 216.148966 
L 197.326203 216.148966 
L 197.326203 185.57452 
L 157.540107 185.57452 
z
" style="fill:#40e0d0;"/>
   </g>
   <g id="matplotlib.axis_1"/>
   <g id="matplotlib.axis_2">
    <g id="ytick_1">
     <g id="line2d_1">
      <defs>
       <path d="M 0 0 
L -3.5 0 
" id="m0b92bd7821" style="stroke:#000000;stroke-width:0.8;"/>
      </defs>
      <g>
       <use style="stroke:#000000;stroke-width:0.8;" x="72" xlink:href="#m0b92bd7821" y="216.148966"/>
      </g>
     </g>
     <g id="text_1">
      <!-- 0 -->
      <defs>
       <path d="M 31.78125 66.40625 
Q 24.171875 66.40625 20.328125 58.90625 
Q 16.5 51.421875 16.5 36.375 
Q 16.5 21.390625 20.328125 13.890625 
Q 24.171875 6.390625 31.78125 6.390625 
Q 39.453125 6.390625 43.28125 13.890625 
Q 47.125 21.390625 47.125 36.375 
Q 47.125 51.421875 43.28125 58.90625 
Q 39.453125 66.40625 31.78125 66.40625 
z
M 31.78125 74.21875 
Q 44.046875 74.21875 50.515625 64.515625 
Q 56.984375 54.828125 56.984375 36.375 
Q 56.984375 17.96875 50.515625 8.265625 
Q 44.046875 -1.421875 31.78125 -1.421875 
Q 19.53125 -1.421875 13.0625 8.265625 
Q 6.59375 17.96875 6.59375 36.375 
Q 6.59375 54.828125 13.0625 64.515625 
Q 19.53125 74.21875 31.78125 74.21875 
z
" id="DejaVuSans-30"/>
      </defs>
      <g transform="translate(58.6375 219.948184)scale(0.1 -0.1)">
       <use xlink:href="#DejaVuSans-30"/>
      </g>
     </g>
    </g>
    <g id="ytick_2">
     <g id="line2d_2">
      <g>
       <use style="stroke:#000000;stroke-width:0.8;" x="72" xlink:href="#m0b92bd7821" y="177.784356"/>
      </g>
     </g>
     <g id="text_2">
      <!-- 200 -->
      <defs>
       <path d="M 19.1875 8.296875 
L 53.609375 8.296875 
L 53.609375 0 
L 7.328125 0 
L 7.328125 8.296875 
Q 12.9375 14.109375 22.625 23.890625 
Q 32.328125 33.6875 34.8125 36.53125 
Q 39.546875 41.84375 41.421875 45.53125 
Q 43.3125 49.21875 43.3125 52.78125 
Q 43.3125 58.59375 39.234375 62.25 
Q 35.15625 65.921875 28.609375 65.921875 
Q 23.96875 65.921875 18.8125 64.3125 
Q 13.671875 62.703125 7.8125 59.421875 
L 7.8125 69.390625 
Q 13.765625 71.78125 18.9375 73 
Q 24.125 74.21875 28.421875 74.21875 
Q 39.75 74.21875 46.484375 68.546875 
Q 53.21875 62.890625 53.21875 53.421875 
Q 53.21875 48.921875 51.53125 44.890625 
Q 49.859375 40.875 45.40625 35.40625 
Q 44.1875 33.984375 37.640625 27.21875 
Q 31.109375 20.453125 19.1875 8.296875 
z
" id="DejaVuSans-32"/>
      </defs>
      <g transform="translate(45.9125 181.583574)scale(0.1 -0.1)">
       <use xlink:href="#DejaVuSans-32"/>
       <use x="63.623047" xlink:href="#DejaVuSans-30"/>
       <use x="127.246094" xlink:href="#DejaVuSans-30"/>
      </g>
     </g>
    </g>
    <g id="ytick_3">
     <g id="line2d_3">
      <g>
       <use style="stroke:#000000;stroke-width:0.8;" x="72" xlink:href="#m0b92bd7821" y="139.419746"/>
      </g>
     </g>
     <g id="text_3">
      <!-- 400 -->
      <defs>
       <path d="M 37.796875 64.3125 
L 12.890625 25.390625 
L 37.796875 25.390625 
z
M 35.203125 72.90625 
L 47.609375 72.90625 
L 47.609375 25.390625 
L 58.015625 25.390625 
L 58.015625 17.1875 
L 47.609375 17.1875 
L 47.609375 0 
L 37.796875 0 
L 37.796875 17.1875 
L 4.890625 17.1875 
L 4.890625 26.703125 
z
" id="DejaVuSans-34"/>
      </defs>
      <g transform="translate(45.9125 143.218964)scale(0.1 -0.1)">
       <use xlink:href="#DejaVuSans-34"/>
       <use x="63.623047" xlink:href="#DejaVuSans-30"/>
       <use x="127.246094" xlink:href="#DejaVuSans-30"/>
      </g>
     </g>
    </g>
    <g id="text_4">
     <!-- Pieces per 100 meters -->
     <defs>
      <path d="M 19.671875 64.796875 
L 19.671875 37.40625 
L 32.078125 37.40625 
Q 38.96875 37.40625 42.71875 40.96875 
Q 46.484375 44.53125 46.484375 51.125 
Q 46.484375 57.671875 42.71875 61.234375 
Q 38.96875 64.796875 32.078125 64.796875 
z
M 9.8125 72.90625 
L 32.078125 72.90625 
Q 44.34375 72.90625 50.609375 67.359375 
Q 56.890625 61.8125 56.890625 51.125 
Q 56.890625 40.328125 50.609375 34.8125 
Q 44.34375 29.296875 32.078125 29.296875 
L 19.671875 29.296875 
L 19.671875 0 
L 9.8125 0 
z
" id="DejaVuSans-50"/>
      <path d="M 9.421875 54.6875 
L 18.40625 54.6875 
L 18.40625 0 
L 9.421875 0 
z
M 9.421875 75.984375 
L 18.40625 75.984375 
L 18.40625 64.59375 
L 9.421875 64.59375 
z
" id="DejaVuSans-69"/>
      <path d="M 56.203125 29.59375 
L 56.203125 25.203125 
L 14.890625 25.203125 
Q 15.484375 15.921875 20.484375 11.0625 
Q 25.484375 6.203125 34.421875 6.203125 
Q 39.59375 6.203125 44.453125 7.46875 
Q 49.3125 8.734375 54.109375 11.28125 
L 54.109375 2.78125 
Q 49.265625 0.734375 44.1875 -0.34375 
Q 39.109375 -1.421875 33.890625 -1.421875 
Q 20.796875 -1.421875 13.15625 6.1875 
Q 5.515625 13.8125 5.515625 26.8125 
Q 5.515625 40.234375 12.765625 48.109375 
Q 20.015625 56 32.328125 56 
Q 43.359375 56 49.78125 48.890625 
Q 56.203125 41.796875 56.203125 29.59375 
z
M 47.21875 32.234375 
Q 47.125 39.59375 43.09375 43.984375 
Q 39.0625 48.390625 32.421875 48.390625 
Q 24.90625 48.390625 20.390625 44.140625 
Q 15.875 39.890625 15.1875 32.171875 
z
" id="DejaVuSans-65"/>
      <path d="M 48.78125 52.59375 
L 48.78125 44.1875 
Q 44.96875 46.296875 41.140625 47.34375 
Q 37.3125 48.390625 33.40625 48.390625 
Q 24.65625 48.390625 19.8125 42.84375 
Q 14.984375 37.3125 14.984375 27.296875 
Q 14.984375 17.28125 19.8125 11.734375 
Q 24.65625 6.203125 33.40625 6.203125 
Q 37.3125 6.203125 41.140625 7.25 
Q 44.96875 8.296875 48.78125 10.40625 
L 48.78125 2.09375 
Q 45.015625 0.34375 40.984375 -0.53125 
Q 36.96875 -1.421875 32.421875 -1.421875 
Q 20.0625 -1.421875 12.78125 6.34375 
Q 5.515625 14.109375 5.515625 27.296875 
Q 5.515625 40.671875 12.859375 48.328125 
Q 20.21875 56 33.015625 56 
Q 37.15625 56 41.109375 55.140625 
Q 45.0625 54.296875 48.78125 52.59375 
z
" id="DejaVuSans-63"/>
      <path d="M 44.28125 53.078125 
L 44.28125 44.578125 
Q 40.484375 46.53125 36.375 47.5 
Q 32.28125 48.484375 27.875 48.484375 
Q 21.1875 48.484375 17.84375 46.4375 
Q 14.5 44.390625 14.5 40.28125 
Q 14.5 37.15625 16.890625 35.375 
Q 19.28125 33.59375 26.515625 31.984375 
L 29.59375 31.296875 
Q 39.15625 29.25 43.1875 25.515625 
Q 47.21875 21.78125 47.21875 15.09375 
Q 47.21875 7.46875 41.1875 3.015625 
Q 35.15625 -1.421875 24.609375 -1.421875 
Q 20.21875 -1.421875 15.453125 -0.5625 
Q 10.6875 0.296875 5.421875 2 
L 5.421875 11.28125 
Q 10.40625 8.6875 15.234375 7.390625 
Q 20.0625 6.109375 24.8125 6.109375 
Q 31.15625 6.109375 34.5625 8.28125 
Q 37.984375 10.453125 37.984375 14.40625 
Q 37.984375 18.0625 35.515625 20.015625 
Q 33.0625 21.96875 24.703125 23.78125 
L 21.578125 24.515625 
Q 13.234375 26.265625 9.515625 29.90625 
Q 5.8125 33.546875 5.8125 39.890625 
Q 5.8125 47.609375 11.28125 51.796875 
Q 16.75 56 26.8125 56 
Q 31.78125 56 36.171875 55.265625 
Q 40.578125 54.546875 44.28125 53.078125 
z
" id="DejaVuSans-73"/>
      <path id="DejaVuSans-20"/>
      <path d="M 18.109375 8.203125 
L 18.109375 -20.796875 
L 9.078125 -20.796875 
L 9.078125 54.6875 
L 18.109375 54.6875 
L 18.109375 46.390625 
Q 20.953125 51.265625 25.265625 53.625 
Q 29.59375 56 35.59375 56 
Q 45.5625 56 51.78125 48.09375 
Q 58.015625 40.1875 58.015625 27.296875 
Q 58.015625 14.40625 51.78125 6.484375 
Q 45.5625 -1.421875 35.59375 -1.421875 
Q 29.59375 -1.421875 25.265625 0.953125 
Q 20.953125 3.328125 18.109375 8.203125 
z
M 48.6875 27.296875 
Q 48.6875 37.203125 44.609375 42.84375 
Q 40.53125 48.484375 33.40625 48.484375 
Q 26.265625 48.484375 22.1875 42.84375 
Q 18.109375 37.203125 18.109375 27.296875 
Q 18.109375 17.390625 22.1875 11.75 
Q 26.265625 6.109375 33.40625 6.109375 
Q 40.53125 6.109375 44.609375 11.75 
Q 48.6875 17.390625 48.6875 27.296875 
z
" id="DejaVuSans-70"/>
      <path d="M 41.109375 46.296875 
Q 39.59375 47.171875 37.8125 47.578125 
Q 36.03125 48 33.890625 48 
Q 26.265625 48 22.1875 43.046875 
Q 18.109375 38.09375 18.109375 28.8125 
L 18.109375 0 
L 9.078125 0 
L 9.078125 54.6875 
L 18.109375 54.6875 
L 18.109375 46.1875 
Q 20.953125 51.171875 25.484375 53.578125 
Q 30.03125 56 36.53125 56 
Q 37.453125 56 38.578125 55.875 
Q 39.703125 55.765625 41.0625 55.515625 
z
" id="DejaVuSans-72"/>
      <path d="M 12.40625 8.296875 
L 28.515625 8.296875 
L 28.515625 63.921875 
L 10.984375 60.40625 
L 10.984375 69.390625 
L 28.421875 72.90625 
L 38.28125 72.90625 
L 38.28125 8.296875 
L 54.390625 8.296875 
L 54.390625 0 
L 12.40625 0 
z
" id="DejaVuSans-31"/>
      <path d="M 52 44.1875 
Q 55.375 50.25 60.0625 53.125 
Q 64.75 56 71.09375 56 
Q 79.640625 56 84.28125 50.015625 
Q 88.921875 44.046875 88.921875 33.015625 
L 88.921875 0 
L 79.890625 0 
L 79.890625 32.71875 
Q 79.890625 40.578125 77.09375 44.375 
Q 74.3125 48.1875 68.609375 48.1875 
Q 61.625 48.1875 57.5625 43.546875 
Q 53.515625 38.921875 53.515625 30.90625 
L 53.515625 0 
L 44.484375 0 
L 44.484375 32.71875 
Q 44.484375 40.625 41.703125 44.40625 
Q 38.921875 48.1875 33.109375 48.1875 
Q 26.21875 48.1875 22.15625 43.53125 
Q 18.109375 38.875 18.109375 30.90625 
L 18.109375 0 
L 9.078125 0 
L 9.078125 54.6875 
L 18.109375 54.6875 
L 18.109375 46.1875 
Q 21.1875 51.21875 25.484375 53.609375 
Q 29.78125 56 35.6875 56 
Q 41.65625 56 45.828125 52.96875 
Q 50 49.953125 52 44.1875 
z
" id="DejaVuSans-6d"/>
      <path d="M 18.3125 70.21875 
L 18.3125 54.6875 
L 36.8125 54.6875 
L 36.8125 47.703125 
L 18.3125 47.703125 
L 18.3125 18.015625 
Q 18.3125 11.328125 20.140625 9.421875 
Q 21.96875 7.515625 27.59375 7.515625 
L 36.8125 7.515625 
L 36.8125 0 
L 27.59375 0 
Q 17.1875 0 13.234375 3.875 
Q 9.28125 7.765625 9.28125 18.015625 
L 9.28125 47.703125 
L 2.6875 47.703125 
L 2.6875 54.6875 
L 9.28125 54.6875 
L 9.28125 70.21875 
z
" id="DejaVuSans-74"/>
     </defs>
     <g transform="translate(39.832812 216.084795)rotate(-90)scale(0.1 -0.1)">
      <use xlink:href="#DejaVuSans-50"/>
      <use x="60.271484" xlink:href="#DejaVuSans-69"/>
      <use x="88.054688" xlink:href="#DejaVuSans-65"/>
      <use x="149.578125" xlink:href="#DejaVuSans-63"/>
      <use x="204.558594" xlink:href="#DejaVuSans-65"/>
      <use x="266.082031" xlink:href="#DejaVuSans-73"/>
      <use x="318.181641" xlink:href="#DejaVuSans-20"/>
      <use x="349.96875" xlink:href="#DejaVuSans-70"/>
      <use x="413.445312" xlink:href="#DejaVuSans-65"/>
      <use x="474.96875" xlink:href="#DejaVuSans-72"/>
      <use x="516.082031" xlink:href="#DejaVuSans-20"/>
      <use x="547.869141" xlink:href="#DejaVuSans-31"/>
      <use x="611.492188" xlink:href="#DejaVuSans-30"/>
      <use x="675.115234" xlink:href="#DejaVuSans-30"/>
      <use x="738.738281" xlink:href="#DejaVuSans-20"/>
      <use x="770.525391" xlink:href="#DejaVuSans-6d"/>
      <use x="867.9375" xlink:href="#DejaVuSans-65"/>
      <use x="929.460938" xlink:href="#DejaVuSans-74"/>
      <use x="968.669922" xlink:href="#DejaVuSans-65"/>
      <use x="1030.193359" xlink:href="#DejaVuSans-72"/>
      <use x="1071.306641" xlink:href="#DejaVuSans-73"/>
     </g>
    </g>
   </g>
   <g id="patch_12">
    <path d="M 72 216.148966 
L 72 103.68 
" style="fill:none;stroke:#000000;stroke-linecap:square;stroke-linejoin:miter;stroke-width:0.8;"/>
   </g>
   <g id="patch_13">
    <path d="M 203.294118 216.148966 
L 203.294118 103.68 
" style="fill:none;stroke:#000000;stroke-linecap:square;stroke-linejoin:miter;stroke-width:0.8;"/>
   </g>
   <g id="patch_14">
    <path d="M 72 216.148966 
L 203.294118 216.148966 
" style="fill:none;stroke:#000000;stroke-linecap:square;stroke-linejoin:miter;stroke-width:0.8;"/>
   </g>
   <g id="patch_15">
    <path d="M 72 103.68 
L 203.294118 103.68 
" style="fill:none;stroke:#000000;stroke-linecap:square;stroke-linejoin:miter;stroke-width:0.8;"/>
   </g>
   <g id="text_5">
    <!-- Lac Léman -->
    <defs>
     <path d="M 9.8125 72.90625 
L 19.671875 72.90625 
L 19.671875 8.296875 
L 55.171875 8.296875 
L 55.171875 0 
L 9.8125 0 
z
" id="DejaVuSans-4c"/>
     <path d="M 34.28125 27.484375 
Q 23.390625 27.484375 19.1875 25 
Q 14.984375 22.515625 14.984375 16.5 
Q 14.984375 11.71875 18.140625 8.90625 
Q 21.296875 6.109375 26.703125 6.109375 
Q 34.1875 6.109375 38.703125 11.40625 
Q 43.21875 16.703125 43.21875 25.484375 
L 43.21875 27.484375 
z
M 52.203125 31.203125 
L 52.203125 0 
L 43.21875 0 
L 43.21875 8.296875 
Q 40.140625 3.328125 35.546875 0.953125 
Q 30.953125 -1.421875 24.3125 -1.421875 
Q 15.921875 -1.421875 10.953125 3.296875 
Q 6 8.015625 6 15.921875 
Q 6 25.140625 12.171875 29.828125 
Q 18.359375 34.515625 30.609375 34.515625 
L 43.21875 34.515625 
L 43.21875 35.40625 
Q 43.21875 41.609375 39.140625 45 
Q 35.0625 48.390625 27.6875 48.390625 
Q 23 48.390625 18.546875 47.265625 
Q 14.109375 46.140625 10.015625 43.890625 
L 10.015625 52.203125 
Q 14.9375 54.109375 19.578125 55.046875 
Q 24.21875 56 28.609375 56 
Q 40.484375 56 46.34375 49.84375 
Q 52.203125 43.703125 52.203125 31.203125 
z
" id="DejaVuSans-61"/>
     <path d="M 56.203125 29.59375 
L 56.203125 25.203125 
L 14.890625 25.203125 
Q 15.484375 15.921875 20.484375 11.0625 
Q 25.484375 6.203125 34.421875 6.203125 
Q 39.59375 6.203125 44.453125 7.46875 
Q 49.3125 8.734375 54.109375 11.28125 
L 54.109375 2.78125 
Q 49.265625 0.734375 44.1875 -0.34375 
Q 39.109375 -1.421875 33.890625 -1.421875 
Q 20.796875 -1.421875 13.15625 6.1875 
Q 5.515625 13.8125 5.515625 26.8125 
Q 5.515625 40.234375 12.765625 48.109375 
Q 20.015625 56 32.328125 56 
Q 43.359375 56 49.78125 48.890625 
Q 56.203125 41.796875 56.203125 29.59375 
z
M 47.21875 32.234375 
Q 47.125 39.59375 43.09375 43.984375 
Q 39.0625 48.390625 32.421875 48.390625 
Q 24.90625 48.390625 20.390625 44.140625 
Q 15.875 39.890625 15.1875 32.171875 
z
M 38.53125 79.984375 
L 48.25 79.984375 
L 32.34375 61.625 
L 24.859375 61.625 
z
" id="DejaVuSans-e9"/>
     <path d="M 54.890625 33.015625 
L 54.890625 0 
L 45.90625 0 
L 45.90625 32.71875 
Q 45.90625 40.484375 42.875 44.328125 
Q 39.84375 48.1875 33.796875 48.1875 
Q 26.515625 48.1875 22.3125 43.546875 
Q 18.109375 38.921875 18.109375 30.90625 
L 18.109375 0 
L 9.078125 0 
L 9.078125 54.6875 
L 18.109375 54.6875 
L 18.109375 46.1875 
Q 21.34375 51.125 25.703125 53.5625 
Q 30.078125 56 35.796875 56 
Q 45.21875 56 50.046875 50.171875 
Q 54.890625 44.34375 54.890625 33.015625 
z
" id="DejaVuSans-6e"/>
    </defs>
    <g transform="translate(72 97.68)scale(0.12 -0.12)">
     <use xlink:href="#DejaVuSans-4c"/>
     <use x="55.712891" xlink:href="#DejaVuSans-61"/>
     <use x="116.992188" xlink:href="#DejaVuSans-63"/>
     <use x="171.972656" xlink:href="#DejaVuSans-20"/>
     <use x="203.759766" xlink:href="#DejaVuSans-4c"/>
     <use x="259.457031" xlink:href="#DejaVuSans-e9"/>
     <use x="320.980469" xlink:href="#DejaVuSans-6d"/>
     <use x="418.392578" xlink:href="#DejaVuSans-61"/>
     <use x="479.671875" xlink:href="#DejaVuSans-6e"/>
    </g>
   </g>
  </g>
  <g id="axes_2">
   <g id="patch_16">
    <path d="M 229.552941 216.148966 
L 360.847059 216.148966 
L 360.847059 103.68 
L 229.552941 103.68 
z
" style="fill:#ffffff;"/>
   </g>
   <g id="patch_17">
    <path clip-path="url(#p7a1ad97449)" d="M 235.520856 216.148966 
L 275.306952 216.148966 
L 275.306952 216.028635 
L 235.520856 216.028635 
z
" style="fill:#00008b;"/>
   </g>
   <g id="patch_18">
    <path clip-path="url(#p7a1ad97449)" d="M 275.306952 216.148966 
L 315.093048 216.148966 
L 315.093048 215.006045 
L 275.306952 215.006045 
z
" style="fill:#1e90ff;"/>
   </g>
   <g id="patch_19">
    <path clip-path="url(#p7a1ad97449)" d="M 315.093048 216.148966 
L 354.879144 216.148966 
L 354.879144 212.481136 
L 315.093048 212.481136 
z
" style="fill:#40e0d0;"/>
   </g>
   <g id="patch_20">
    <path clip-path="url(#p7a1ad97449)" d="M 235.520856 216.148966 
L 275.306952 216.148966 
L 275.306952 216.028635 
L 235.520856 216.028635 
z
" style="fill:#00008b;"/>
   </g>
   <g id="patch_21">
    <path clip-path="url(#p7a1ad97449)" d="M 275.306952 216.148966 
L 315.093048 216.148966 
L 315.093048 215.006045 
L 275.306952 215.006045 
z
" style="fill:#1e90ff;"/>
   </g>
   <g id="patch_22">
    <path clip-path="url(#p7a1ad97449)" d="M 315.093048 216.148966 
L 354.879144 216.148966 
L 354.879144 212.481136 
L 315.093048 212.481136 
z
" style="fill:#40e0d0;"/>
   </g>
   <g id="patch_23">
    <path clip-path="url(#p7a1ad97449)" d="M 235.520856 216.148966 
L 275.306952 216.148966 
L 275.306952 216.028635 
L 235.520856 216.028635 
z
" style="fill:#00008b;"/>
   </g>
   <g id="patch_24">
    <path clip-path="url(#p7a1ad97449)" d="M 275.306952 216.148966 
L 315.093048 216.148966 
L 315.093048 215.006045 
L 275.306952 215.006045 
z
" style="fill:#1e90ff;"/>
   </g>
   <g id="patch_25">
    <path clip-path="url(#p7a1ad97449)" d="M 315.093048 216.148966 
L 354.879144 216.148966 
L 354.879144 212.481136 
L 315.093048 212.481136 
z
" style="fill:#40e0d0;"/>
   </g>
   <g id="matplotlib.axis_3"/>
   <g id="matplotlib.axis_4">
    <g id="ytick_4">
     <g id="line2d_4">
      <g>
       <use style="stroke:#000000;stroke-width:0.8;" x="229.552941" xlink:href="#m0b92bd7821" y="216.148966"/>
      </g>
     </g>
    </g>
    <g id="ytick_5">
     <g id="line2d_5">
      <g>
       <use style="stroke:#000000;stroke-width:0.8;" x="229.552941" xlink:href="#m0b92bd7821" y="177.784356"/>
      </g>
     </g>
    </g>
    <g id="ytick_6">
     <g id="line2d_6">
      <g>
       <use style="stroke:#000000;stroke-width:0.8;" x="229.552941" xlink:href="#m0b92bd7821" y="139.419746"/>
      </g>
     </g>
    </g>
   </g>
   <g id="patch_26">
    <path d="M 229.552941 216.148966 
L 229.552941 103.68 
" style="fill:none;stroke:#000000;stroke-linecap:square;stroke-linejoin:miter;stroke-width:0.8;"/>
   </g>
   <g id="patch_27">
    <path d="M 360.847059 216.148966 
L 360.847059 103.68 
" style="fill:none;stroke:#000000;stroke-linecap:square;stroke-linejoin:miter;stroke-width:0.8;"/>
   </g>
   <g id="patch_28">
    <path d="M 229.552941 216.148966 
L 360.847059 216.148966 
" style="fill:none;stroke:#000000;stroke-linecap:square;stroke-linejoin:miter;stroke-width:0.8;"/>
   </g>
   <g id="patch_29">
    <path d="M 229.552941 103.68 
L 360.847059 103.68 
" style="fill:none;stroke:#000000;stroke-linecap:square;stroke-linejoin:miter;stroke-width:0.8;"/>
   </g>
   <g id="text_6">
    <!-- Thunersee -->
    <defs>
     <path d="M -0.296875 72.90625 
L 61.375 72.90625 
L 61.375 64.59375 
L 35.5 64.59375 
L 35.5 0 
L 25.59375 0 
L 25.59375 64.59375 
L -0.296875 64.59375 
z
" id="DejaVuSans-54"/>
     <path d="M 54.890625 33.015625 
L 54.890625 0 
L 45.90625 0 
L 45.90625 32.71875 
Q 45.90625 40.484375 42.875 44.328125 
Q 39.84375 48.1875 33.796875 48.1875 
Q 26.515625 48.1875 22.3125 43.546875 
Q 18.109375 38.921875 18.109375 30.90625 
L 18.109375 0 
L 9.078125 0 
L 9.078125 75.984375 
L 18.109375 75.984375 
L 18.109375 46.1875 
Q 21.34375 51.125 25.703125 53.5625 
Q 30.078125 56 35.796875 56 
Q 45.21875 56 50.046875 50.171875 
Q 54.890625 44.34375 54.890625 33.015625 
z
" id="DejaVuSans-68"/>
     <path d="M 8.5 21.578125 
L 8.5 54.6875 
L 17.484375 54.6875 
L 17.484375 21.921875 
Q 17.484375 14.15625 20.5 10.265625 
Q 23.53125 6.390625 29.59375 6.390625 
Q 36.859375 6.390625 41.078125 11.03125 
Q 45.3125 15.671875 45.3125 23.6875 
L 45.3125 54.6875 
L 54.296875 54.6875 
L 54.296875 0 
L 45.3125 0 
L 45.3125 8.40625 
Q 42.046875 3.421875 37.71875 1 
Q 33.40625 -1.421875 27.6875 -1.421875 
Q 18.265625 -1.421875 13.375 4.4375 
Q 8.5 10.296875 8.5 21.578125 
z
M 31.109375 56 
z
" id="DejaVuSans-75"/>
    </defs>
    <g transform="translate(229.552941 97.68)scale(0.12 -0.12)">
     <use xlink:href="#DejaVuSans-54"/>
     <use x="61.083984" xlink:href="#DejaVuSans-68"/>
     <use x="124.462891" xlink:href="#DejaVuSans-75"/>
     <use x="187.841797" xlink:href="#DejaVuSans-6e"/>
     <use x="251.220703" xlink:href="#DejaVuSans-65"/>
     <use x="312.744141" xlink:href="#DejaVuSans-72"/>
     <use x="353.857422" xlink:href="#DejaVuSans-73"/>
     <use x="405.957031" xlink:href="#DejaVuSans-65"/>
     <use x="467.480469" xlink:href="#DejaVuSans-65"/>
    </g>
   </g>
  </g>
  <g id="axes_3">
   <g id="patch_30">
    <path d="M 387.105882 216.148966 
L 518.4 216.148966 
L 518.4 103.68 
L 387.105882 103.68 
z
" style="fill:#ffffff;"/>
   </g>
   <g id="patch_31">
    <path clip-path="url(#pf80f66898e)" d="M 393.073797 216.148966 
L 432.859893 216.148966 
L 432.859893 216.082077 
L 393.073797 216.082077 
z
" style="fill:#00008b;"/>
   </g>
   <g id="patch_32">
    <path clip-path="url(#pf80f66898e)" d="M 432.859893 216.148966 
L 472.645989 216.148966 
L 472.645989 213.907916 
L 432.859893 213.907916 
z
" style="fill:#1e90ff;"/>
   </g>
   <g id="patch_33">
    <path clip-path="url(#pf80f66898e)" d="M 472.645989 216.148966 
L 512.432086 216.148966 
L 512.432086 215.010649 
L 472.645989 215.010649 
z
" style="fill:#40e0d0;"/>
   </g>
   <g id="patch_34">
    <path clip-path="url(#pf80f66898e)" d="M 393.073797 216.148966 
L 432.859893 216.148966 
L 432.859893 216.082077 
L 393.073797 216.082077 
z
" style="fill:#00008b;"/>
   </g>
   <g id="patch_35">
    <path clip-path="url(#pf80f66898e)" d="M 432.859893 216.148966 
L 472.645989 216.148966 
L 472.645989 213.907916 
L 432.859893 213.907916 
z
" style="fill:#1e90ff;"/>
   </g>
   <g id="patch_36">
    <path clip-path="url(#pf80f66898e)" d="M 472.645989 216.148966 
L 512.432086 216.148966 
L 512.432086 215.010649 
L 472.645989 215.010649 
z
" style="fill:#40e0d0;"/>
   </g>
   <g id="patch_37">
    <path clip-path="url(#pf80f66898e)" d="M 393.073797 216.148966 
L 432.859893 216.148966 
L 432.859893 216.082077 
L 393.073797 216.082077 
z
" style="fill:#00008b;"/>
   </g>
   <g id="patch_38">
    <path clip-path="url(#pf80f66898e)" d="M 432.859893 216.148966 
L 472.645989 216.148966 
L 472.645989 213.907916 
L 432.859893 213.907916 
z
" style="fill:#1e90ff;"/>
   </g>
   <g id="patch_39">
    <path clip-path="url(#pf80f66898e)" d="M 472.645989 216.148966 
L 512.432086 216.148966 
L 512.432086 215.010649 
L 472.645989 215.010649 
z
" style="fill:#40e0d0;"/>
   </g>
   <g id="matplotlib.axis_5"/>
   <g id="matplotlib.axis_6">
    <g id="ytick_7">
     <g id="line2d_7">
      <g>
       <use style="stroke:#000000;stroke-width:0.8;" x="387.105882" xlink:href="#m0b92bd7821" y="216.148966"/>
      </g>
     </g>
    </g>
    <g id="ytick_8">
     <g id="line2d_8">
      <g>
       <use style="stroke:#000000;stroke-width:0.8;" x="387.105882" xlink:href="#m0b92bd7821" y="177.784356"/>
      </g>
     </g>
    </g>
    <g id="ytick_9">
     <g id="line2d_9">
      <g>
       <use style="stroke:#000000;stroke-width:0.8;" x="387.105882" xlink:href="#m0b92bd7821" y="139.419746"/>
      </g>
     </g>
    </g>
   </g>
   <g id="patch_40">
    <path d="M 387.105882 216.148966 
L 387.105882 103.68 
" style="fill:none;stroke:#000000;stroke-linecap:square;stroke-linejoin:miter;stroke-width:0.8;"/>
   </g>
   <g id="patch_41">
    <path d="M 518.4 216.148966 
L 518.4 103.68 
" style="fill:none;stroke:#000000;stroke-linecap:square;stroke-linejoin:miter;stroke-width:0.8;"/>
   </g>
   <g id="patch_42">
    <path d="M 387.105882 216.148966 
L 518.4 216.148966 
" style="fill:none;stroke:#000000;stroke-linecap:square;stroke-linejoin:miter;stroke-width:0.8;"/>
   </g>
   <g id="patch_43">
    <path d="M 387.105882 103.68 
L 518.4 103.68 
" style="fill:none;stroke:#000000;stroke-linecap:square;stroke-linejoin:miter;stroke-width:0.8;"/>
   </g>
   <g id="text_7">
    <!-- Katzensee -->
    <defs>
     <path d="M 9.8125 72.90625 
L 19.671875 72.90625 
L 19.671875 42.09375 
L 52.390625 72.90625 
L 65.09375 72.90625 
L 28.90625 38.921875 
L 67.671875 0 
L 54.6875 0 
L 19.671875 35.109375 
L 19.671875 0 
L 9.8125 0 
z
" id="DejaVuSans-4b"/>
     <path d="M 5.515625 54.6875 
L 48.1875 54.6875 
L 48.1875 46.484375 
L 14.40625 7.171875 
L 48.1875 7.171875 
L 48.1875 0 
L 4.296875 0 
L 4.296875 8.203125 
L 38.09375 47.515625 
L 5.515625 47.515625 
z
" id="DejaVuSans-7a"/>
    </defs>
    <g transform="translate(387.105882 97.68)scale(0.12 -0.12)">
     <use xlink:href="#DejaVuSans-4b"/>
     <use x="65.560547" xlink:href="#DejaVuSans-61"/>
     <use x="126.839844" xlink:href="#DejaVuSans-74"/>
     <use x="166.048828" xlink:href="#DejaVuSans-7a"/>
     <use x="218.539062" xlink:href="#DejaVuSans-65"/>
     <use x="280.0625" xlink:href="#DejaVuSans-6e"/>
     <use x="343.441406" xlink:href="#DejaVuSans-73"/>
     <use x="395.541016" xlink:href="#DejaVuSans-65"/>
     <use x="457.064453" xlink:href="#DejaVuSans-65"/>
    </g>
   </g>
  </g>
  <g id="axes_4">
   <g id="patch_44">
    <path d="M 72 351.111724 
L 203.294118 351.111724 
L 203.294118 238.642759 
L 72 238.642759 
z
" style="fill:#ffffff;"/>
   </g>
   <g id="patch_45">
    <path clip-path="url(#p9a7a7885dc)" d="M 77.967914 351.111724 
L 117.754011 351.111724 
L 117.754011 351.111724 
L 77.967914 351.111724 
z
" style="fill:#00008b;"/>
   </g>
   <g id="patch_46">
    <path clip-path="url(#p9a7a7885dc)" d="M 117.754011 351.111724 
L 157.540107 351.111724 
L 157.540107 348.953715 
L 117.754011 348.953715 
z
" style="fill:#1e90ff;"/>
   </g>
   <g id="patch_47">
    <path clip-path="url(#p9a7a7885dc)" d="M 157.540107 351.111724 
L 197.326203 351.111724 
L 197.326203 332.169198 
L 157.540107 332.169198 
z
" style="fill:#40e0d0;"/>
   </g>
   <g id="patch_48">
    <path clip-path="url(#p9a7a7885dc)" d="M 77.967914 351.111724 
L 117.754011 351.111724 
L 117.754011 351.111724 
L 77.967914 351.111724 
z
" style="fill:#00008b;"/>
   </g>
   <g id="patch_49">
    <path clip-path="url(#p9a7a7885dc)" d="M 117.754011 351.111724 
L 157.540107 351.111724 
L 157.540107 348.953715 
L 117.754011 348.953715 
z
" style="fill:#1e90ff;"/>
   </g>
   <g id="patch_50">
    <path clip-path="url(#p9a7a7885dc)" d="M 157.540107 351.111724 
L 197.326203 351.111724 
L 197.326203 332.169198 
L 157.540107 332.169198 
z
" style="fill:#40e0d0;"/>
   </g>
   <g id="patch_51">
    <path clip-path="url(#p9a7a7885dc)" d="M 77.967914 351.111724 
L 117.754011 351.111724 
L 117.754011 351.111724 
L 77.967914 351.111724 
z
" style="fill:#00008b;"/>
   </g>
   <g id="patch_52">
    <path clip-path="url(#p9a7a7885dc)" d="M 117.754011 351.111724 
L 157.540107 351.111724 
L 157.540107 348.953715 
L 117.754011 348.953715 
z
" style="fill:#1e90ff;"/>
   </g>
   <g id="patch_53">
    <path clip-path="url(#p9a7a7885dc)" d="M 157.540107 351.111724 
L 197.326203 351.111724 
L 197.326203 332.169198 
L 157.540107 332.169198 
z
" style="fill:#40e0d0;"/>
   </g>
   <g id="matplotlib.axis_7"/>
   <g id="matplotlib.axis_8">
    <g id="ytick_10">
     <g id="line2d_10">
      <g>
       <use style="stroke:#000000;stroke-width:0.8;" x="72" xlink:href="#m0b92bd7821" y="351.111724"/>
      </g>
     </g>
     <g id="text_8">
      <!-- 0 -->
      <g transform="translate(58.6375 354.910943)scale(0.1 -0.1)">
       <use xlink:href="#DejaVuSans-30"/>
      </g>
     </g>
    </g>
    <g id="ytick_11">
     <g id="line2d_11">
      <g>
       <use style="stroke:#000000;stroke-width:0.8;" x="72" xlink:href="#m0b92bd7821" y="312.747114"/>
      </g>
     </g>
     <g id="text_9">
      <!-- 200 -->
      <g transform="translate(45.9125 316.546333)scale(0.1 -0.1)">
       <use xlink:href="#DejaVuSans-32"/>
       <use x="63.623047" xlink:href="#DejaVuSans-30"/>
       <use x="127.246094" xlink:href="#DejaVuSans-30"/>
      </g>
     </g>
    </g>
    <g id="ytick_12">
     <g id="line2d_12">
      <g>
       <use style="stroke:#000000;stroke-width:0.8;" x="72" xlink:href="#m0b92bd7821" y="274.382504"/>
      </g>
     </g>
     <g id="text_10">
      <!-- 400 -->
      <g transform="translate(45.9125 278.181723)scale(0.1 -0.1)">
       <use xlink:href="#DejaVuSans-34"/>
       <use x="63.623047" xlink:href="#DejaVuSans-30"/>
       <use x="127.246094" xlink:href="#DejaVuSans-30"/>
      </g>
     </g>
    </g>
    <g id="text_11">
     <!-- Pieces per 100 meters -->
     <g transform="translate(39.832812 351.047554)rotate(-90)scale(0.1 -0.1)">
      <use xlink:href="#DejaVuSans-50"/>
      <use x="60.271484" xlink:href="#DejaVuSans-69"/>
      <use x="88.054688" xlink:href="#DejaVuSans-65"/>
      <use x="149.578125" xlink:href="#DejaVuSans-63"/>
      <use x="204.558594" xlink:href="#DejaVuSans-65"/>
      <use x="266.082031" xlink:href="#DejaVuSans-73"/>
      <use x="318.181641" xlink:href="#DejaVuSans-20"/>
      <use x="349.96875" xlink:href="#DejaVuSans-70"/>
      <use x="413.445312" xlink:href="#DejaVuSans-65"/>
      <use x="474.96875" xlink:href="#DejaVuSans-72"/>
      <use x="516.082031" xlink:href="#DejaVuSans-20"/>
      <use x="547.869141" xlink:href="#DejaVuSans-31"/>
      <use x="611.492188" xlink:href="#DejaVuSans-30"/>
      <use x="675.115234" xlink:href="#DejaVuSans-30"/>
      <use x="738.738281" xlink:href="#DejaVuSans-20"/>
      <use x="770.525391" xlink:href="#DejaVuSans-6d"/>
      <use x="867.9375" xlink:href="#DejaVuSans-65"/>
      <use x="929.460938" xlink:href="#DejaVuSans-74"/>
      <use x="968.669922" xlink:href="#DejaVuSans-65"/>
      <use x="1030.193359" xlink:href="#DejaVuSans-72"/>
      <use x="1071.306641" xlink:href="#DejaVuSans-73"/>
     </g>
    </g>
   </g>
   <g id="patch_54">
    <path d="M 72 351.111724 
L 72 238.642759 
" style="fill:none;stroke:#000000;stroke-linecap:square;stroke-linejoin:miter;stroke-width:0.8;"/>
   </g>
   <g id="patch_55">
    <path d="M 203.294118 351.111724 
L 203.294118 238.642759 
" style="fill:none;stroke:#000000;stroke-linecap:square;stroke-linejoin:miter;stroke-width:0.8;"/>
   </g>
   <g id="patch_56">
    <path d="M 72 351.111724 
L 203.294118 351.111724 
" style="fill:none;stroke:#000000;stroke-linecap:square;stroke-linejoin:miter;stroke-width:0.8;"/>
   </g>
   <g id="patch_57">
    <path d="M 72 238.642759 
L 203.294118 238.642759 
" style="fill:none;stroke:#000000;stroke-linecap:square;stroke-linejoin:miter;stroke-width:0.8;"/>
   </g>
   <g id="text_12">
    <!-- Neuenburgersee -->
    <defs>
     <path d="M 9.8125 72.90625 
L 23.09375 72.90625 
L 55.421875 11.921875 
L 55.421875 72.90625 
L 64.984375 72.90625 
L 64.984375 0 
L 51.703125 0 
L 19.390625 60.984375 
L 19.390625 0 
L 9.8125 0 
z
" id="DejaVuSans-4e"/>
     <path d="M 48.6875 27.296875 
Q 48.6875 37.203125 44.609375 42.84375 
Q 40.53125 48.484375 33.40625 48.484375 
Q 26.265625 48.484375 22.1875 42.84375 
Q 18.109375 37.203125 18.109375 27.296875 
Q 18.109375 17.390625 22.1875 11.75 
Q 26.265625 6.109375 33.40625 6.109375 
Q 40.53125 6.109375 44.609375 11.75 
Q 48.6875 17.390625 48.6875 27.296875 
z
M 18.109375 46.390625 
Q 20.953125 51.265625 25.265625 53.625 
Q 29.59375 56 35.59375 56 
Q 45.5625 56 51.78125 48.09375 
Q 58.015625 40.1875 58.015625 27.296875 
Q 58.015625 14.40625 51.78125 6.484375 
Q 45.5625 -1.421875 35.59375 -1.421875 
Q 29.59375 -1.421875 25.265625 0.953125 
Q 20.953125 3.328125 18.109375 8.203125 
L 18.109375 0 
L 9.078125 0 
L 9.078125 75.984375 
L 18.109375 75.984375 
z
" id="DejaVuSans-62"/>
     <path d="M 45.40625 27.984375 
Q 45.40625 37.75 41.375 43.109375 
Q 37.359375 48.484375 30.078125 48.484375 
Q 22.859375 48.484375 18.828125 43.109375 
Q 14.796875 37.75 14.796875 27.984375 
Q 14.796875 18.265625 18.828125 12.890625 
Q 22.859375 7.515625 30.078125 7.515625 
Q 37.359375 7.515625 41.375 12.890625 
Q 45.40625 18.265625 45.40625 27.984375 
z
M 54.390625 6.78125 
Q 54.390625 -7.171875 48.1875 -13.984375 
Q 42 -20.796875 29.203125 -20.796875 
Q 24.46875 -20.796875 20.265625 -20.09375 
Q 16.0625 -19.390625 12.109375 -17.921875 
L 12.109375 -9.1875 
Q 16.0625 -11.328125 19.921875 -12.34375 
Q 23.78125 -13.375 27.78125 -13.375 
Q 36.625 -13.375 41.015625 -8.765625 
Q 45.40625 -4.15625 45.40625 5.171875 
L 45.40625 9.625 
Q 42.625 4.78125 38.28125 2.390625 
Q 33.9375 0 27.875 0 
Q 17.828125 0 11.671875 7.65625 
Q 5.515625 15.328125 5.515625 27.984375 
Q 5.515625 40.671875 11.671875 48.328125 
Q 17.828125 56 27.875 56 
Q 33.9375 56 38.28125 53.609375 
Q 42.625 51.21875 45.40625 46.390625 
L 45.40625 54.6875 
L 54.390625 54.6875 
z
" id="DejaVuSans-67"/>
    </defs>
    <g transform="translate(72 232.642759)scale(0.12 -0.12)">
     <use xlink:href="#DejaVuSans-4e"/>
     <use x="74.804688" xlink:href="#DejaVuSans-65"/>
     <use x="136.328125" xlink:href="#DejaVuSans-75"/>
     <use x="199.707031" xlink:href="#DejaVuSans-65"/>
     <use x="261.230469" xlink:href="#DejaVuSans-6e"/>
     <use x="324.609375" xlink:href="#DejaVuSans-62"/>
     <use x="388.085938" xlink:href="#DejaVuSans-75"/>
     <use x="451.464844" xlink:href="#DejaVuSans-72"/>
     <use x="492.5625" xlink:href="#DejaVuSans-67"/>
     <use x="556.039062" xlink:href="#DejaVuSans-65"/>
     <use x="617.5625" xlink:href="#DejaVuSans-72"/>
     <use x="658.675781" xlink:href="#DejaVuSans-73"/>
     <use x="710.775391" xlink:href="#DejaVuSans-65"/>
     <use x="772.298828" xlink:href="#DejaVuSans-65"/>
    </g>
   </g>
  </g>
  <g id="axes_5">
   <g id="patch_58">
    <path d="M 229.552941 351.111724 
L 360.847059 351.111724 
L 360.847059 238.642759 
L 229.552941 238.642759 
z
" style="fill:#ffffff;"/>
   </g>
   <g id="patch_59">
    <path clip-path="url(#pb91e3435ad)" d="M 235.520856 351.111724 
L 275.306952 351.111724 
L 275.306952 351.042265 
L 235.520856 351.042265 
z
" style="fill:#00008b;"/>
   </g>
   <g id="patch_60">
    <path clip-path="url(#pb91e3435ad)" d="M 275.306952 351.111724 
L 315.093048 351.111724 
L 315.093048 347.706462 
L 275.306952 347.706462 
z
" style="fill:#1e90ff;"/>
   </g>
   <g id="patch_61">
    <path clip-path="url(#pb91e3435ad)" d="M 315.093048 351.111724 
L 354.879144 351.111724 
L 354.879144 347.987195 
L 315.093048 347.987195 
z
" style="fill:#40e0d0;"/>
   </g>
   <g id="patch_62">
    <path clip-path="url(#pb91e3435ad)" d="M 235.520856 351.111724 
L 275.306952 351.111724 
L 275.306952 351.042265 
L 235.520856 351.042265 
z
" style="fill:#00008b;"/>
   </g>
   <g id="patch_63">
    <path clip-path="url(#pb91e3435ad)" d="M 275.306952 351.111724 
L 315.093048 351.111724 
L 315.093048 347.706462 
L 275.306952 347.706462 
z
" style="fill:#1e90ff;"/>
   </g>
   <g id="patch_64">
    <path clip-path="url(#pb91e3435ad)" d="M 315.093048 351.111724 
L 354.879144 351.111724 
L 354.879144 347.987195 
L 315.093048 347.987195 
z
" style="fill:#40e0d0;"/>
   </g>
   <g id="patch_65">
    <path clip-path="url(#pb91e3435ad)" d="M 235.520856 351.111724 
L 275.306952 351.111724 
L 275.306952 351.042265 
L 235.520856 351.042265 
z
" style="fill:#00008b;"/>
   </g>
   <g id="patch_66">
    <path clip-path="url(#pb91e3435ad)" d="M 275.306952 351.111724 
L 315.093048 351.111724 
L 315.093048 347.706462 
L 275.306952 347.706462 
z
" style="fill:#1e90ff;"/>
   </g>
   <g id="patch_67">
    <path clip-path="url(#pb91e3435ad)" d="M 315.093048 351.111724 
L 354.879144 351.111724 
L 354.879144 347.987195 
L 315.093048 347.987195 
z
" style="fill:#40e0d0;"/>
   </g>
   <g id="matplotlib.axis_9"/>
   <g id="matplotlib.axis_10">
    <g id="ytick_13">
     <g id="line2d_13">
      <g>
       <use style="stroke:#000000;stroke-width:0.8;" x="229.552941" xlink:href="#m0b92bd7821" y="351.111724"/>
      </g>
     </g>
    </g>
    <g id="ytick_14">
     <g id="line2d_14">
      <g>
       <use style="stroke:#000000;stroke-width:0.8;" x="229.552941" xlink:href="#m0b92bd7821" y="312.747114"/>
      </g>
     </g>
    </g>
    <g id="ytick_15">
     <g id="line2d_15">
      <g>
       <use style="stroke:#000000;stroke-width:0.8;" x="229.552941" xlink:href="#m0b92bd7821" y="274.382504"/>
      </g>
     </g>
    </g>
   </g>
   <g id="patch_68">
    <path d="M 229.552941 351.111724 
L 229.552941 238.642759 
" style="fill:none;stroke:#000000;stroke-linecap:square;stroke-linejoin:miter;stroke-width:0.8;"/>
   </g>
   <g id="patch_69">
    <path d="M 360.847059 351.111724 
L 360.847059 238.642759 
" style="fill:none;stroke:#000000;stroke-linecap:square;stroke-linejoin:miter;stroke-width:0.8;"/>
   </g>
   <g id="patch_70">
    <path d="M 229.552941 351.111724 
L 360.847059 351.111724 
" style="fill:none;stroke:#000000;stroke-linecap:square;stroke-linejoin:miter;stroke-width:0.8;"/>
   </g>
   <g id="patch_71">
    <path d="M 229.552941 238.642759 
L 360.847059 238.642759 
" style="fill:none;stroke:#000000;stroke-linecap:square;stroke-linejoin:miter;stroke-width:0.8;"/>
   </g>
   <g id="text_13">
    <!-- Untersee -->
    <defs>
     <path d="M 8.6875 72.90625 
L 18.609375 72.90625 
L 18.609375 28.609375 
Q 18.609375 16.890625 22.84375 11.734375 
Q 27.09375 6.59375 36.625 6.59375 
Q 46.09375 6.59375 50.34375 11.734375 
Q 54.59375 16.890625 54.59375 28.609375 
L 54.59375 72.90625 
L 64.5 72.90625 
L 64.5 27.390625 
Q 64.5 13.140625 57.4375 5.859375 
Q 50.390625 -1.421875 36.625 -1.421875 
Q 22.796875 -1.421875 15.734375 5.859375 
Q 8.6875 13.140625 8.6875 27.390625 
z
" id="DejaVuSans-55"/>
    </defs>
    <g transform="translate(229.552941 232.642759)scale(0.12 -0.12)">
     <use xlink:href="#DejaVuSans-55"/>
     <use x="73.193359" xlink:href="#DejaVuSans-6e"/>
     <use x="136.572266" xlink:href="#DejaVuSans-74"/>
     <use x="175.78125" xlink:href="#DejaVuSans-65"/>
     <use x="237.304688" xlink:href="#DejaVuSans-72"/>
     <use x="278.417969" xlink:href="#DejaVuSans-73"/>
     <use x="330.517578" xlink:href="#DejaVuSans-65"/>
     <use x="392.041016" xlink:href="#DejaVuSans-65"/>
    </g>
   </g>
  </g>
  <g id="axes_6">
   <g id="patch_72">
    <path d="M 387.105882 351.111724 
L 518.4 351.111724 
L 518.4 238.642759 
L 387.105882 238.642759 
z
" style="fill:#ffffff;"/>
   </g>
   <g id="patch_73">
    <path clip-path="url(#p0ac2127b6d)" d="M 393.073797 351.111724 
L 432.859893 351.111724 
L 432.859893 351.102191 
L 393.073797 351.102191 
z
" style="fill:#00008b;"/>
   </g>
   <g id="patch_74">
    <path clip-path="url(#p0ac2127b6d)" d="M 432.859893 351.111724 
L 472.645989 351.111724 
L 472.645989 350.339118 
L 432.859893 350.339118 
z
" style="fill:#1e90ff;"/>
   </g>
   <g id="patch_75">
    <path clip-path="url(#p0ac2127b6d)" d="M 472.645989 351.111724 
L 512.432086 351.111724 
L 512.432086 347.868572 
L 472.645989 347.868572 
z
" style="fill:#40e0d0;"/>
   </g>
   <g id="patch_76">
    <path clip-path="url(#p0ac2127b6d)" d="M 393.073797 351.111724 
L 432.859893 351.111724 
L 432.859893 351.102191 
L 393.073797 351.102191 
z
" style="fill:#00008b;"/>
   </g>
   <g id="patch_77">
    <path clip-path="url(#p0ac2127b6d)" d="M 432.859893 351.111724 
L 472.645989 351.111724 
L 472.645989 350.339118 
L 432.859893 350.339118 
z
" style="fill:#1e90ff;"/>
   </g>
   <g id="patch_78">
    <path clip-path="url(#p0ac2127b6d)" d="M 472.645989 351.111724 
L 512.432086 351.111724 
L 512.432086 347.868572 
L 472.645989 347.868572 
z
" style="fill:#40e0d0;"/>
   </g>
   <g id="patch_79">
    <path clip-path="url(#p0ac2127b6d)" d="M 393.073797 351.111724 
L 432.859893 351.111724 
L 432.859893 351.102191 
L 393.073797 351.102191 
z
" style="fill:#00008b;"/>
   </g>
   <g id="patch_80">
    <path clip-path="url(#p0ac2127b6d)" d="M 432.859893 351.111724 
L 472.645989 351.111724 
L 472.645989 350.339118 
L 432.859893 350.339118 
z
" style="fill:#1e90ff;"/>
   </g>
   <g id="patch_81">
    <path clip-path="url(#p0ac2127b6d)" d="M 472.645989 351.111724 
L 512.432086 351.111724 
L 512.432086 347.868572 
L 472.645989 347.868572 
z
" style="fill:#40e0d0;"/>
   </g>
   <g id="matplotlib.axis_11"/>
   <g id="matplotlib.axis_12">
    <g id="ytick_16">
     <g id="line2d_16">
      <g>
       <use style="stroke:#000000;stroke-width:0.8;" x="387.105882" xlink:href="#m0b92bd7821" y="351.111724"/>
      </g>
     </g>
    </g>
    <g id="ytick_17">
     <g id="line2d_17">
      <g>
       <use style="stroke:#000000;stroke-width:0.8;" x="387.105882" xlink:href="#m0b92bd7821" y="312.747114"/>
      </g>
     </g>
    </g>
    <g id="ytick_18">
     <g id="line2d_18">
      <g>
       <use style="stroke:#000000;stroke-width:0.8;" x="387.105882" xlink:href="#m0b92bd7821" y="274.382504"/>
      </g>
     </g>
    </g>
   </g>
   <g id="patch_82">
    <path d="M 387.105882 351.111724 
L 387.105882 238.642759 
" style="fill:none;stroke:#000000;stroke-linecap:square;stroke-linejoin:miter;stroke-width:0.8;"/>
   </g>
   <g id="patch_83">
    <path d="M 518.4 351.111724 
L 518.4 238.642759 
" style="fill:none;stroke:#000000;stroke-linecap:square;stroke-linejoin:miter;stroke-width:0.8;"/>
   </g>
   <g id="patch_84">
    <path d="M 387.105882 351.111724 
L 518.4 351.111724 
" style="fill:none;stroke:#000000;stroke-linecap:square;stroke-linejoin:miter;stroke-width:0.8;"/>
   </g>
   <g id="patch_85">
    <path d="M 387.105882 238.642759 
L 518.4 238.642759 
" style="fill:none;stroke:#000000;stroke-linecap:square;stroke-linejoin:miter;stroke-width:0.8;"/>
   </g>
   <g id="text_14">
    <!-- Quatre cantons -->
    <defs>
     <path d="M 39.40625 66.21875 
Q 28.65625 66.21875 22.328125 58.203125 
Q 16.015625 50.203125 16.015625 36.375 
Q 16.015625 22.609375 22.328125 14.59375 
Q 28.65625 6.59375 39.40625 6.59375 
Q 50.140625 6.59375 56.421875 14.59375 
Q 62.703125 22.609375 62.703125 36.375 
Q 62.703125 50.203125 56.421875 58.203125 
Q 50.140625 66.21875 39.40625 66.21875 
z
M 53.21875 1.3125 
L 66.21875 -12.890625 
L 54.296875 -12.890625 
L 43.5 -1.21875 
Q 41.890625 -1.3125 41.03125 -1.359375 
Q 40.1875 -1.421875 39.40625 -1.421875 
Q 24.03125 -1.421875 14.8125 8.859375 
Q 5.609375 19.140625 5.609375 36.375 
Q 5.609375 53.65625 14.8125 63.9375 
Q 24.03125 74.21875 39.40625 74.21875 
Q 54.734375 74.21875 63.90625 63.9375 
Q 73.09375 53.65625 73.09375 36.375 
Q 73.09375 23.6875 67.984375 14.640625 
Q 62.890625 5.609375 53.21875 1.3125 
z
" id="DejaVuSans-51"/>
     <path d="M 30.609375 48.390625 
Q 23.390625 48.390625 19.1875 42.75 
Q 14.984375 37.109375 14.984375 27.296875 
Q 14.984375 17.484375 19.15625 11.84375 
Q 23.34375 6.203125 30.609375 6.203125 
Q 37.796875 6.203125 41.984375 11.859375 
Q 46.1875 17.53125 46.1875 27.296875 
Q 46.1875 37.015625 41.984375 42.703125 
Q 37.796875 48.390625 30.609375 48.390625 
z
M 30.609375 56 
Q 42.328125 56 49.015625 48.375 
Q 55.71875 40.765625 55.71875 27.296875 
Q 55.71875 13.875 49.015625 6.21875 
Q 42.328125 -1.421875 30.609375 -1.421875 
Q 18.84375 -1.421875 12.171875 6.21875 
Q 5.515625 13.875 5.515625 27.296875 
Q 5.515625 40.765625 12.171875 48.375 
Q 18.84375 56 30.609375 56 
z
" id="DejaVuSans-6f"/>
    </defs>
    <g transform="translate(387.105882 232.642759)scale(0.12 -0.12)">
     <use xlink:href="#DejaVuSans-51"/>
     <use x="78.710938" xlink:href="#DejaVuSans-75"/>
     <use x="142.089844" xlink:href="#DejaVuSans-61"/>
     <use x="203.369141" xlink:href="#DejaVuSans-74"/>
     <use x="242.578125" xlink:href="#DejaVuSans-72"/>
     <use x="283.660156" xlink:href="#DejaVuSans-65"/>
     <use x="345.183594" xlink:href="#DejaVuSans-20"/>
     <use x="376.970703" xlink:href="#DejaVuSans-63"/>
     <use x="431.951172" xlink:href="#DejaVuSans-61"/>
     <use x="493.230469" xlink:href="#DejaVuSans-6e"/>
     <use x="556.609375" xlink:href="#DejaVuSans-74"/>
     <use x="595.818359" xlink:href="#DejaVuSans-6f"/>
     <use x="657" xlink:href="#DejaVuSans-6e"/>
     <use x="720.378906" xlink:href="#DejaVuSans-73"/>
    </g>
   </g>
  </g>
  <g id="axes_7">
   <g id="patch_86">
    <path d="M 72 486.074483 
L 203.294118 486.074483 
L 203.294118 373.605517 
L 72 373.605517 
z
" style="fill:#ffffff;"/>
   </g>
   <g id="patch_87">
    <path clip-path="url(#p1791fc1cce)" d="M 77.967914 486.074483 
L 117.754011 486.074483 
L 117.754011 484.263501 
L 77.967914 484.263501 
z
" style="fill:#00008b;"/>
   </g>
   <g id="patch_88">
    <path clip-path="url(#p1791fc1cce)" d="M 117.754011 486.074483 
L 157.540107 486.074483 
L 157.540107 462.666489 
L 117.754011 462.666489 
z
" style="fill:#1e90ff;"/>
   </g>
   <g id="patch_89">
    <path clip-path="url(#p1791fc1cce)" d="M 157.540107 486.074483 
L 197.326203 486.074483 
L 197.326203 378.961182 
L 157.540107 378.961182 
z
" style="fill:#40e0d0;"/>
   </g>
   <g id="patch_90">
    <path clip-path="url(#p1791fc1cce)" d="M 77.967914 486.074483 
L 117.754011 486.074483 
L 117.754011 484.263501 
L 77.967914 484.263501 
z
" style="fill:#00008b;"/>
   </g>
   <g id="patch_91">
    <path clip-path="url(#p1791fc1cce)" d="M 117.754011 486.074483 
L 157.540107 486.074483 
L 157.540107 462.666489 
L 117.754011 462.666489 
z
" style="fill:#1e90ff;"/>
   </g>
   <g id="patch_92">
    <path clip-path="url(#p1791fc1cce)" d="M 157.540107 486.074483 
L 197.326203 486.074483 
L 197.326203 378.961182 
L 157.540107 378.961182 
z
" style="fill:#40e0d0;"/>
   </g>
   <g id="patch_93">
    <path clip-path="url(#p1791fc1cce)" d="M 77.967914 486.074483 
L 117.754011 486.074483 
L 117.754011 484.263501 
L 77.967914 484.263501 
z
" style="fill:#00008b;"/>
   </g>
   <g id="patch_94">
    <path clip-path="url(#p1791fc1cce)" d="M 117.754011 486.074483 
L 157.540107 486.074483 
L 157.540107 462.666489 
L 117.754011 462.666489 
z
" style="fill:#1e90ff;"/>
   </g>
   <g id="patch_95">
    <path clip-path="url(#p1791fc1cce)" d="M 157.540107 486.074483 
L 197.326203 486.074483 
L 197.326203 378.961182 
L 157.540107 378.961182 
z
" style="fill:#40e0d0;"/>
   </g>
   <g id="matplotlib.axis_13"/>
   <g id="matplotlib.axis_14">
    <g id="ytick_19">
     <g id="line2d_19">
      <g>
       <use style="stroke:#000000;stroke-width:0.8;" x="72" xlink:href="#m0b92bd7821" y="486.074483"/>
      </g>
     </g>
     <g id="text_15">
      <!-- 0 -->
      <g transform="translate(58.6375 489.873702)scale(0.1 -0.1)">
       <use xlink:href="#DejaVuSans-30"/>
      </g>
     </g>
    </g>
    <g id="ytick_20">
     <g id="line2d_20">
      <g>
       <use style="stroke:#000000;stroke-width:0.8;" x="72" xlink:href="#m0b92bd7821" y="447.709873"/>
      </g>
     </g>
     <g id="text_16">
      <!-- 200 -->
      <g transform="translate(45.9125 451.509092)scale(0.1 -0.1)">
       <use xlink:href="#DejaVuSans-32"/>
       <use x="63.623047" xlink:href="#DejaVuSans-30"/>
       <use x="127.246094" xlink:href="#DejaVuSans-30"/>
      </g>
     </g>
    </g>
    <g id="ytick_21">
     <g id="line2d_21">
      <g>
       <use style="stroke:#000000;stroke-width:0.8;" x="72" xlink:href="#m0b92bd7821" y="409.345263"/>
      </g>
     </g>
     <g id="text_17">
      <!-- 400 -->
      <g transform="translate(45.9125 413.144482)scale(0.1 -0.1)">
       <use xlink:href="#DejaVuSans-34"/>
       <use x="63.623047" xlink:href="#DejaVuSans-30"/>
       <use x="127.246094" xlink:href="#DejaVuSans-30"/>
      </g>
     </g>
    </g>
    <g id="text_18">
     <!-- Pieces per 100 meters -->
     <g transform="translate(39.832812 486.010313)rotate(-90)scale(0.1 -0.1)">
      <use xlink:href="#DejaVuSans-50"/>
      <use x="60.271484" xlink:href="#DejaVuSans-69"/>
      <use x="88.054688" xlink:href="#DejaVuSans-65"/>
      <use x="149.578125" xlink:href="#DejaVuSans-63"/>
      <use x="204.558594" xlink:href="#DejaVuSans-65"/>
      <use x="266.082031" xlink:href="#DejaVuSans-73"/>
      <use x="318.181641" xlink:href="#DejaVuSans-20"/>
      <use x="349.96875" xlink:href="#DejaVuSans-70"/>
      <use x="413.445312" xlink:href="#DejaVuSans-65"/>
      <use x="474.96875" xlink:href="#DejaVuSans-72"/>
      <use x="516.082031" xlink:href="#DejaVuSans-20"/>
      <use x="547.869141" xlink:href="#DejaVuSans-31"/>
      <use x="611.492188" xlink:href="#DejaVuSans-30"/>
      <use x="675.115234" xlink:href="#DejaVuSans-30"/>
      <use x="738.738281" xlink:href="#DejaVuSans-20"/>
      <use x="770.525391" xlink:href="#DejaVuSans-6d"/>
      <use x="867.9375" xlink:href="#DejaVuSans-65"/>
      <use x="929.460938" xlink:href="#DejaVuSans-74"/>
      <use x="968.669922" xlink:href="#DejaVuSans-65"/>
      <use x="1030.193359" xlink:href="#DejaVuSans-72"/>
      <use x="1071.306641" xlink:href="#DejaVuSans-73"/>
     </g>
    </g>
   </g>
   <g id="patch_96">
    <path d="M 72 486.074483 
L 72 373.605517 
" style="fill:none;stroke:#000000;stroke-linecap:square;stroke-linejoin:miter;stroke-width:0.8;"/>
   </g>
   <g id="patch_97">
    <path d="M 203.294118 486.074483 
L 203.294118 373.605517 
" style="fill:none;stroke:#000000;stroke-linecap:square;stroke-linejoin:miter;stroke-width:0.8;"/>
   </g>
   <g id="patch_98">
    <path d="M 72 486.074483 
L 203.294118 486.074483 
" style="fill:none;stroke:#000000;stroke-linecap:square;stroke-linejoin:miter;stroke-width:0.8;"/>
   </g>
   <g id="patch_99">
    <path d="M 72 373.605517 
L 203.294118 373.605517 
" style="fill:none;stroke:#000000;stroke-linecap:square;stroke-linejoin:miter;stroke-width:0.8;"/>
   </g>
   <g id="text_19">
    <!-- Walensee -->
    <defs>
     <path d="M 3.328125 72.90625 
L 13.28125 72.90625 
L 28.609375 11.28125 
L 43.890625 72.90625 
L 54.984375 72.90625 
L 70.3125 11.28125 
L 85.59375 72.90625 
L 95.609375 72.90625 
L 77.296875 0 
L 64.890625 0 
L 49.515625 63.28125 
L 33.984375 0 
L 21.578125 0 
z
" id="DejaVuSans-57"/>
     <path d="M 9.421875 75.984375 
L 18.40625 75.984375 
L 18.40625 0 
L 9.421875 0 
z
" id="DejaVuSans-6c"/>
    </defs>
    <g transform="translate(72 367.605517)scale(0.12 -0.12)">
     <use xlink:href="#DejaVuSans-57"/>
     <use x="98.783203" xlink:href="#DejaVuSans-61"/>
     <use x="160.0625" xlink:href="#DejaVuSans-6c"/>
     <use x="187.845703" xlink:href="#DejaVuSans-65"/>
     <use x="249.369141" xlink:href="#DejaVuSans-6e"/>
     <use x="312.748047" xlink:href="#DejaVuSans-73"/>
     <use x="364.847656" xlink:href="#DejaVuSans-65"/>
     <use x="426.371094" xlink:href="#DejaVuSans-65"/>
    </g>
   </g>
  </g>
  <g id="axes_8">
   <g id="patch_100">
    <path d="M 229.552941 486.074483 
L 360.847059 486.074483 
L 360.847059 373.605517 
L 229.552941 373.605517 
z
" style="fill:#ffffff;"/>
   </g>
   <g id="patch_101">
    <path clip-path="url(#p81141d766e)" d="M 235.520856 486.074483 
L 275.306952 486.074483 
L 275.306952 485.732079 
L 235.520856 485.732079 
z
" style="fill:#00008b;"/>
   </g>
   <g id="patch_102">
    <path clip-path="url(#p81141d766e)" d="M 275.306952 486.074483 
L 315.093048 486.074483 
L 315.093048 484.704866 
L 275.306952 484.704866 
z
" style="fill:#1e90ff;"/>
   </g>
   <g id="patch_103">
    <path clip-path="url(#p81141d766e)" d="M 315.093048 486.074483 
L 354.879144 486.074483 
L 354.879144 481.278907 
L 315.093048 481.278907 
z
" style="fill:#40e0d0;"/>
   </g>
   <g id="patch_104">
    <path clip-path="url(#p81141d766e)" d="M 235.520856 486.074483 
L 275.306952 486.074483 
L 275.306952 485.732079 
L 235.520856 485.732079 
z
" style="fill:#00008b;"/>
   </g>
   <g id="patch_105">
    <path clip-path="url(#p81141d766e)" d="M 275.306952 486.074483 
L 315.093048 486.074483 
L 315.093048 484.704866 
L 275.306952 484.704866 
z
" style="fill:#1e90ff;"/>
   </g>
   <g id="patch_106">
    <path clip-path="url(#p81141d766e)" d="M 315.093048 486.074483 
L 354.879144 486.074483 
L 354.879144 481.278907 
L 315.093048 481.278907 
z
" style="fill:#40e0d0;"/>
   </g>
   <g id="patch_107">
    <path clip-path="url(#p81141d766e)" d="M 235.520856 486.074483 
L 275.306952 486.074483 
L 275.306952 485.732079 
L 235.520856 485.732079 
z
" style="fill:#00008b;"/>
   </g>
   <g id="patch_108">
    <path clip-path="url(#p81141d766e)" d="M 275.306952 486.074483 
L 315.093048 486.074483 
L 315.093048 484.704866 
L 275.306952 484.704866 
z
" style="fill:#1e90ff;"/>
   </g>
   <g id="patch_109">
    <path clip-path="url(#p81141d766e)" d="M 315.093048 486.074483 
L 354.879144 486.074483 
L 354.879144 481.278907 
L 315.093048 481.278907 
z
" style="fill:#40e0d0;"/>
   </g>
   <g id="matplotlib.axis_15"/>
   <g id="matplotlib.axis_16">
    <g id="ytick_22">
     <g id="line2d_22">
      <g>
       <use style="stroke:#000000;stroke-width:0.8;" x="229.552941" xlink:href="#m0b92bd7821" y="486.074483"/>
      </g>
     </g>
    </g>
    <g id="ytick_23">
     <g id="line2d_23">
      <g>
       <use style="stroke:#000000;stroke-width:0.8;" x="229.552941" xlink:href="#m0b92bd7821" y="447.709873"/>
      </g>
     </g>
    </g>
    <g id="ytick_24">
     <g id="line2d_24">
      <g>
       <use style="stroke:#000000;stroke-width:0.8;" x="229.552941" xlink:href="#m0b92bd7821" y="409.345263"/>
      </g>
     </g>
    </g>
   </g>
   <g id="patch_110">
    <path d="M 229.552941 486.074483 
L 229.552941 373.605517 
" style="fill:none;stroke:#000000;stroke-linecap:square;stroke-linejoin:miter;stroke-width:0.8;"/>
   </g>
   <g id="patch_111">
    <path d="M 360.847059 486.074483 
L 360.847059 373.605517 
" style="fill:none;stroke:#000000;stroke-linecap:square;stroke-linejoin:miter;stroke-width:0.8;"/>
   </g>
   <g id="patch_112">
    <path d="M 229.552941 486.074483 
L 360.847059 486.074483 
" style="fill:none;stroke:#000000;stroke-linecap:square;stroke-linejoin:miter;stroke-width:0.8;"/>
   </g>
   <g id="patch_113">
    <path d="M 229.552941 373.605517 
L 360.847059 373.605517 
" style="fill:none;stroke:#000000;stroke-linecap:square;stroke-linejoin:miter;stroke-width:0.8;"/>
   </g>
   <g id="text_20">
    <!-- Schiffenensee -->
    <defs>
     <path d="M 53.515625 70.515625 
L 53.515625 60.890625 
Q 47.90625 63.578125 42.921875 64.890625 
Q 37.9375 66.21875 33.296875 66.21875 
Q 25.25 66.21875 20.875 63.09375 
Q 16.5 59.96875 16.5 54.203125 
Q 16.5 49.359375 19.40625 46.890625 
Q 22.3125 44.4375 30.421875 42.921875 
L 36.375 41.703125 
Q 47.40625 39.59375 52.65625 34.296875 
Q 57.90625 29 57.90625 20.125 
Q 57.90625 9.515625 50.796875 4.046875 
Q 43.703125 -1.421875 29.984375 -1.421875 
Q 24.8125 -1.421875 18.96875 -0.25 
Q 13.140625 0.921875 6.890625 3.21875 
L 6.890625 13.375 
Q 12.890625 10.015625 18.65625 8.296875 
Q 24.421875 6.59375 29.984375 6.59375 
Q 38.421875 6.59375 43.015625 9.90625 
Q 47.609375 13.234375 47.609375 19.390625 
Q 47.609375 24.75 44.3125 27.78125 
Q 41.015625 30.8125 33.5 32.328125 
L 27.484375 33.5 
Q 16.453125 35.6875 11.515625 40.375 
Q 6.59375 45.0625 6.59375 53.421875 
Q 6.59375 63.09375 13.40625 68.65625 
Q 20.21875 74.21875 32.171875 74.21875 
Q 37.3125 74.21875 42.625 73.28125 
Q 47.953125 72.359375 53.515625 70.515625 
z
" id="DejaVuSans-53"/>
     <path d="M 37.109375 75.984375 
L 37.109375 68.5 
L 28.515625 68.5 
Q 23.6875 68.5 21.796875 66.546875 
Q 19.921875 64.59375 19.921875 59.515625 
L 19.921875 54.6875 
L 34.71875 54.6875 
L 34.71875 47.703125 
L 19.921875 47.703125 
L 19.921875 0 
L 10.890625 0 
L 10.890625 47.703125 
L 2.296875 47.703125 
L 2.296875 54.6875 
L 10.890625 54.6875 
L 10.890625 58.5 
Q 10.890625 67.625 15.140625 71.796875 
Q 19.390625 75.984375 28.609375 75.984375 
z
" id="DejaVuSans-66"/>
    </defs>
    <g transform="translate(229.552941 367.605517)scale(0.12 -0.12)">
     <use xlink:href="#DejaVuSans-53"/>
     <use x="63.476562" xlink:href="#DejaVuSans-63"/>
     <use x="118.457031" xlink:href="#DejaVuSans-68"/>
     <use x="181.835938" xlink:href="#DejaVuSans-69"/>
     <use x="209.619141" xlink:href="#DejaVuSans-66"/>
     <use x="244.824219" xlink:href="#DejaVuSans-66"/>
     <use x="280.029297" xlink:href="#DejaVuSans-65"/>
     <use x="341.552734" xlink:href="#DejaVuSans-6e"/>
     <use x="404.931641" xlink:href="#DejaVuSans-65"/>
     <use x="466.455078" xlink:href="#DejaVuSans-6e"/>
     <use x="529.833984" xlink:href="#DejaVuSans-73"/>
     <use x="581.933594" xlink:href="#DejaVuSans-65"/>
     <use x="643.457031" xlink:href="#DejaVuSans-65"/>
    </g>
   </g>
  </g>
  <g id="axes_9">
   <g id="patch_114">
    <path d="M 387.105882 486.074483 
L 518.4 486.074483 
L 518.4 373.605517 
L 387.105882 373.605517 
z
" style="fill:#ffffff;"/>
   </g>
   <g id="patch_115">
    <path clip-path="url(#p860e97dfb3)" d="M 393.073797 486.074483 
L 432.859893 486.074483 
L 432.859893 484.679411 
L 393.073797 484.679411 
z
" style="fill:#00008b;"/>
   </g>
   <g id="patch_116">
    <path clip-path="url(#p860e97dfb3)" d="M 432.859893 486.074483 
L 472.645989 486.074483 
L 472.645989 482.287896 
L 432.859893 482.287896 
z
" style="fill:#1e90ff;"/>
   </g>
   <g id="patch_117">
    <path clip-path="url(#p860e97dfb3)" d="M 472.645989 486.074483 
L 512.432086 486.074483 
L 512.432086 452.293753 
L 472.645989 452.293753 
z
" style="fill:#40e0d0;"/>
   </g>
   <g id="patch_118">
    <path clip-path="url(#p860e97dfb3)" d="M 393.073797 486.074483 
L 432.859893 486.074483 
L 432.859893 484.679411 
L 393.073797 484.679411 
z
" style="fill:#00008b;"/>
   </g>
   <g id="patch_119">
    <path clip-path="url(#p860e97dfb3)" d="M 432.859893 486.074483 
L 472.645989 486.074483 
L 472.645989 482.287896 
L 432.859893 482.287896 
z
" style="fill:#1e90ff;"/>
   </g>
   <g id="patch_120">
    <path clip-path="url(#p860e97dfb3)" d="M 472.645989 486.074483 
L 512.432086 486.074483 
L 512.432086 452.293753 
L 472.645989 452.293753 
z
" style="fill:#40e0d0;"/>
   </g>
   <g id="patch_121">
    <path clip-path="url(#p860e97dfb3)" d="M 393.073797 486.074483 
L 432.859893 486.074483 
L 432.859893 484.679411 
L 393.073797 484.679411 
z
" style="fill:#00008b;"/>
   </g>
   <g id="patch_122">
    <path clip-path="url(#p860e97dfb3)" d="M 432.859893 486.074483 
L 472.645989 486.074483 
L 472.645989 482.287896 
L 432.859893 482.287896 
z
" style="fill:#1e90ff;"/>
   </g>
   <g id="patch_123">
    <path clip-path="url(#p860e97dfb3)" d="M 472.645989 486.074483 
L 512.432086 486.074483 
L 512.432086 452.293753 
L 472.645989 452.293753 
z
" style="fill:#40e0d0;"/>
   </g>
   <g id="matplotlib.axis_17"/>
   <g id="matplotlib.axis_18">
    <g id="ytick_25">
     <g id="line2d_25">
      <g>
       <use style="stroke:#000000;stroke-width:0.8;" x="387.105882" xlink:href="#m0b92bd7821" y="486.074483"/>
      </g>
     </g>
    </g>
    <g id="ytick_26">
     <g id="line2d_26">
      <g>
       <use style="stroke:#000000;stroke-width:0.8;" x="387.105882" xlink:href="#m0b92bd7821" y="447.709873"/>
      </g>
     </g>
    </g>
    <g id="ytick_27">
     <g id="line2d_27">
      <g>
       <use style="stroke:#000000;stroke-width:0.8;" x="387.105882" xlink:href="#m0b92bd7821" y="409.345263"/>
      </g>
     </g>
    </g>
   </g>
   <g id="patch_124">
    <path d="M 387.105882 486.074483 
L 387.105882 373.605517 
" style="fill:none;stroke:#000000;stroke-linecap:square;stroke-linejoin:miter;stroke-width:0.8;"/>
   </g>
   <g id="patch_125">
    <path d="M 518.4 486.074483 
L 518.4 373.605517 
" style="fill:none;stroke:#000000;stroke-linecap:square;stroke-linejoin:miter;stroke-width:0.8;"/>
   </g>
   <g id="patch_126">
    <path d="M 387.105882 486.074483 
L 518.4 486.074483 
" style="fill:none;stroke:#000000;stroke-linecap:square;stroke-linejoin:miter;stroke-width:0.8;"/>
   </g>
   <g id="patch_127">
    <path d="M 387.105882 373.605517 
L 518.4 373.605517 
" style="fill:none;stroke:#000000;stroke-linecap:square;stroke-linejoin:miter;stroke-width:0.8;"/>
   </g>
   <g id="text_21">
    <!-- Bielersee -->
    <defs>
     <path d="M 19.671875 34.8125 
L 19.671875 8.109375 
L 35.5 8.109375 
Q 43.453125 8.109375 47.28125 11.40625 
Q 51.125 14.703125 51.125 21.484375 
Q 51.125 28.328125 47.28125 31.5625 
Q 43.453125 34.8125 35.5 34.8125 
z
M 19.671875 64.796875 
L 19.671875 42.828125 
L 34.28125 42.828125 
Q 41.5 42.828125 45.03125 45.53125 
Q 48.578125 48.25 48.578125 53.8125 
Q 48.578125 59.328125 45.03125 62.0625 
Q 41.5 64.796875 34.28125 64.796875 
z
M 9.8125 72.90625 
L 35.015625 72.90625 
Q 46.296875 72.90625 52.390625 68.21875 
Q 58.5 63.53125 58.5 54.890625 
Q 58.5 48.1875 55.375 44.234375 
Q 52.25 40.28125 46.1875 39.3125 
Q 53.46875 37.75 57.5 32.78125 
Q 61.53125 27.828125 61.53125 20.40625 
Q 61.53125 10.640625 54.890625 5.3125 
Q 48.25 0 35.984375 0 
L 9.8125 0 
z
" id="DejaVuSans-42"/>
    </defs>
    <g transform="translate(387.105882 367.605517)scale(0.12 -0.12)">
     <use xlink:href="#DejaVuSans-42"/>
     <use x="68.603516" xlink:href="#DejaVuSans-69"/>
     <use x="96.386719" xlink:href="#DejaVuSans-65"/>
     <use x="157.910156" xlink:href="#DejaVuSans-6c"/>
     <use x="185.693359" xlink:href="#DejaVuSans-65"/>
     <use x="247.216797" xlink:href="#DejaVuSans-72"/>
     <use x="288.330078" xlink:href="#DejaVuSans-73"/>
     <use x="340.429688" xlink:href="#DejaVuSans-65"/>
     <use x="401.953125" xlink:href="#DejaVuSans-65"/>
    </g>
   </g>
  </g>
  <g id="axes_10">
   <g id="patch_128">
    <path d="M 72 621.037241 
L 203.294118 621.037241 
L 203.294118 508.568276 
L 72 508.568276 
z
" style="fill:#ffffff;"/>
   </g>
   <g id="patch_129">
    <path clip-path="url(#pfcc677844d)" d="M 77.967914 621.037241 
L 117.754011 621.037241 
L 117.754011 620.600096 
L 77.967914 620.600096 
z
" style="fill:#00008b;"/>
   </g>
   <g id="patch_130">
    <path clip-path="url(#pfcc677844d)" d="M 117.754011 621.037241 
L 157.540107 621.037241 
L 157.540107 616.489251 
L 117.754011 616.489251 
z
" style="fill:#1e90ff;"/>
   </g>
   <g id="patch_131">
    <path clip-path="url(#pfcc677844d)" d="M 157.540107 621.037241 
L 197.326203 621.037241 
L 197.326203 614.734205 
L 157.540107 614.734205 
z
" style="fill:#40e0d0;"/>
   </g>
   <g id="patch_132">
    <path clip-path="url(#pfcc677844d)" d="M 77.967914 621.037241 
L 117.754011 621.037241 
L 117.754011 620.600096 
L 77.967914 620.600096 
z
" style="fill:#00008b;"/>
   </g>
   <g id="patch_133">
    <path clip-path="url(#pfcc677844d)" d="M 117.754011 621.037241 
L 157.540107 621.037241 
L 157.540107 616.489251 
L 117.754011 616.489251 
z
" style="fill:#1e90ff;"/>
   </g>
   <g id="patch_134">
    <path clip-path="url(#pfcc677844d)" d="M 157.540107 621.037241 
L 197.326203 621.037241 
L 197.326203 614.734205 
L 157.540107 614.734205 
z
" style="fill:#40e0d0;"/>
   </g>
   <g id="patch_135">
    <path clip-path="url(#pfcc677844d)" d="M 77.967914 621.037241 
L 117.754011 621.037241 
L 117.754011 620.600096 
L 77.967914 620.600096 
z
" style="fill:#00008b;"/>
   </g>
   <g id="patch_136">
    <path clip-path="url(#pfcc677844d)" d="M 117.754011 621.037241 
L 157.540107 621.037241 
L 157.540107 616.489251 
L 117.754011 616.489251 
z
" style="fill:#1e90ff;"/>
   </g>
   <g id="patch_137">
    <path clip-path="url(#pfcc677844d)" d="M 157.540107 621.037241 
L 197.326203 621.037241 
L 197.326203 614.734205 
L 157.540107 614.734205 
z
" style="fill:#40e0d0;"/>
   </g>
   <g id="matplotlib.axis_19"/>
   <g id="matplotlib.axis_20">
    <g id="ytick_28">
     <g id="line2d_28">
      <g>
       <use style="stroke:#000000;stroke-width:0.8;" x="72" xlink:href="#m0b92bd7821" y="621.037241"/>
      </g>
     </g>
     <g id="text_22">
      <!-- 0 -->
      <g transform="translate(58.6375 624.83646)scale(0.1 -0.1)">
       <use xlink:href="#DejaVuSans-30"/>
      </g>
     </g>
    </g>
    <g id="ytick_29">
     <g id="line2d_29">
      <g>
       <use style="stroke:#000000;stroke-width:0.8;" x="72" xlink:href="#m0b92bd7821" y="582.672631"/>
      </g>
     </g>
     <g id="text_23">
      <!-- 200 -->
      <g transform="translate(45.9125 586.47185)scale(0.1 -0.1)">
       <use xlink:href="#DejaVuSans-32"/>
       <use x="63.623047" xlink:href="#DejaVuSans-30"/>
       <use x="127.246094" xlink:href="#DejaVuSans-30"/>
      </g>
     </g>
    </g>
    <g id="ytick_30">
     <g id="line2d_30">
      <g>
       <use style="stroke:#000000;stroke-width:0.8;" x="72" xlink:href="#m0b92bd7821" y="544.308021"/>
      </g>
     </g>
     <g id="text_24">
      <!-- 400 -->
      <g transform="translate(45.9125 548.10724)scale(0.1 -0.1)">
       <use xlink:href="#DejaVuSans-34"/>
       <use x="63.623047" xlink:href="#DejaVuSans-30"/>
       <use x="127.246094" xlink:href="#DejaVuSans-30"/>
      </g>
     </g>
    </g>
    <g id="text_25">
     <!-- Pieces per 100 meters -->
     <g transform="translate(39.832812 620.973071)rotate(-90)scale(0.1 -0.1)">
      <use xlink:href="#DejaVuSans-50"/>
      <use x="60.271484" xlink:href="#DejaVuSans-69"/>
      <use x="88.054688" xlink:href="#DejaVuSans-65"/>
      <use x="149.578125" xlink:href="#DejaVuSans-63"/>
      <use x="204.558594" xlink:href="#DejaVuSans-65"/>
      <use x="266.082031" xlink:href="#DejaVuSans-73"/>
      <use x="318.181641" xlink:href="#DejaVuSans-20"/>
      <use x="349.96875" xlink:href="#DejaVuSans-70"/>
      <use x="413.445312" xlink:href="#DejaVuSans-65"/>
      <use x="474.96875" xlink:href="#DejaVuSans-72"/>
      <use x="516.082031" xlink:href="#DejaVuSans-20"/>
      <use x="547.869141" xlink:href="#DejaVuSans-31"/>
      <use x="611.492188" xlink:href="#DejaVuSans-30"/>
      <use x="675.115234" xlink:href="#DejaVuSans-30"/>
      <use x="738.738281" xlink:href="#DejaVuSans-20"/>
      <use x="770.525391" xlink:href="#DejaVuSans-6d"/>
      <use x="867.9375" xlink:href="#DejaVuSans-65"/>
      <use x="929.460938" xlink:href="#DejaVuSans-74"/>
      <use x="968.669922" xlink:href="#DejaVuSans-65"/>
      <use x="1030.193359" xlink:href="#DejaVuSans-72"/>
      <use x="1071.306641" xlink:href="#DejaVuSans-73"/>
     </g>
    </g>
   </g>
   <g id="patch_138">
    <path d="M 72 621.037241 
L 72 508.568276 
" style="fill:none;stroke:#000000;stroke-linecap:square;stroke-linejoin:miter;stroke-width:0.8;"/>
   </g>
   <g id="patch_139">
    <path d="M 203.294118 621.037241 
L 203.294118 508.568276 
" style="fill:none;stroke:#000000;stroke-linecap:square;stroke-linejoin:miter;stroke-width:0.8;"/>
   </g>
   <g id="patch_140">
    <path d="M 72 621.037241 
L 203.294118 621.037241 
" style="fill:none;stroke:#000000;stroke-linecap:square;stroke-linejoin:miter;stroke-width:0.8;"/>
   </g>
   <g id="patch_141">
    <path d="M 72 508.568276 
L 203.294118 508.568276 
" style="fill:none;stroke:#000000;stroke-linecap:square;stroke-linejoin:miter;stroke-width:0.8;"/>
   </g>
   <g id="text_26">
    <!-- Bodensee -->
    <defs>
     <path d="M 45.40625 46.390625 
L 45.40625 75.984375 
L 54.390625 75.984375 
L 54.390625 0 
L 45.40625 0 
L 45.40625 8.203125 
Q 42.578125 3.328125 38.25 0.953125 
Q 33.9375 -1.421875 27.875 -1.421875 
Q 17.96875 -1.421875 11.734375 6.484375 
Q 5.515625 14.40625 5.515625 27.296875 
Q 5.515625 40.1875 11.734375 48.09375 
Q 17.96875 56 27.875 56 
Q 33.9375 56 38.25 53.625 
Q 42.578125 51.265625 45.40625 46.390625 
z
M 14.796875 27.296875 
Q 14.796875 17.390625 18.875 11.75 
Q 22.953125 6.109375 30.078125 6.109375 
Q 37.203125 6.109375 41.296875 11.75 
Q 45.40625 17.390625 45.40625 27.296875 
Q 45.40625 37.203125 41.296875 42.84375 
Q 37.203125 48.484375 30.078125 48.484375 
Q 22.953125 48.484375 18.875 42.84375 
Q 14.796875 37.203125 14.796875 27.296875 
z
" id="DejaVuSans-64"/>
    </defs>
    <g transform="translate(72 502.568276)scale(0.12 -0.12)">
     <use xlink:href="#DejaVuSans-42"/>
     <use x="68.603516" xlink:href="#DejaVuSans-6f"/>
     <use x="129.785156" xlink:href="#DejaVuSans-64"/>
     <use x="193.261719" xlink:href="#DejaVuSans-65"/>
     <use x="254.785156" xlink:href="#DejaVuSans-6e"/>
     <use x="318.164062" xlink:href="#DejaVuSans-73"/>
     <use x="370.263672" xlink:href="#DejaVuSans-65"/>
     <use x="431.787109" xlink:href="#DejaVuSans-65"/>
    </g>
   </g>
  </g>
  <g id="axes_11">
   <g id="patch_142">
    <path d="M 229.552941 621.037241 
L 360.847059 621.037241 
L 360.847059 508.568276 
L 229.552941 508.568276 
z
" style="fill:#ffffff;"/>
   </g>
   <g id="patch_143">
    <path clip-path="url(#p6221c259e9)" d="M 235.520856 621.037241 
L 275.306952 621.037241 
L 275.306952 620.319804 
L 235.520856 620.319804 
z
" style="fill:#00008b;"/>
   </g>
   <g id="patch_144">
    <path clip-path="url(#p6221c259e9)" d="M 275.306952 621.037241 
L 315.093048 621.037241 
L 315.093048 608.21928 
L 275.306952 608.21928 
z
" style="fill:#1e90ff;"/>
   </g>
   <g id="patch_145">
    <path clip-path="url(#p6221c259e9)" d="M 315.093048 621.037241 
L 354.879144 621.037241 
L 354.879144 610.61256 
L 315.093048 610.61256 
z
" style="fill:#40e0d0;"/>
   </g>
   <g id="patch_146">
    <path clip-path="url(#p6221c259e9)" d="M 235.520856 621.037241 
L 275.306952 621.037241 
L 275.306952 620.319804 
L 235.520856 620.319804 
z
" style="fill:#00008b;"/>
   </g>
   <g id="patch_147">
    <path clip-path="url(#p6221c259e9)" d="M 275.306952 621.037241 
L 315.093048 621.037241 
L 315.093048 608.21928 
L 275.306952 608.21928 
z
" style="fill:#1e90ff;"/>
   </g>
   <g id="patch_148">
    <path clip-path="url(#p6221c259e9)" d="M 315.093048 621.037241 
L 354.879144 621.037241 
L 354.879144 610.61256 
L 315.093048 610.61256 
z
" style="fill:#40e0d0;"/>
   </g>
   <g id="patch_149">
    <path clip-path="url(#p6221c259e9)" d="M 235.520856 621.037241 
L 275.306952 621.037241 
L 275.306952 620.319804 
L 235.520856 620.319804 
z
" style="fill:#00008b;"/>
   </g>
   <g id="patch_150">
    <path clip-path="url(#p6221c259e9)" d="M 275.306952 621.037241 
L 315.093048 621.037241 
L 315.093048 608.21928 
L 275.306952 608.21928 
z
" style="fill:#1e90ff;"/>
   </g>
   <g id="patch_151">
    <path clip-path="url(#p6221c259e9)" d="M 315.093048 621.037241 
L 354.879144 621.037241 
L 354.879144 610.61256 
L 315.093048 610.61256 
z
" style="fill:#40e0d0;"/>
   </g>
   <g id="matplotlib.axis_21"/>
   <g id="matplotlib.axis_22">
    <g id="ytick_31">
     <g id="line2d_31">
      <g>
       <use style="stroke:#000000;stroke-width:0.8;" x="229.552941" xlink:href="#m0b92bd7821" y="621.037241"/>
      </g>
     </g>
    </g>
    <g id="ytick_32">
     <g id="line2d_32">
      <g>
       <use style="stroke:#000000;stroke-width:0.8;" x="229.552941" xlink:href="#m0b92bd7821" y="582.672631"/>
      </g>
     </g>
    </g>
    <g id="ytick_33">
     <g id="line2d_33">
      <g>
       <use style="stroke:#000000;stroke-width:0.8;" x="229.552941" xlink:href="#m0b92bd7821" y="544.308021"/>
      </g>
     </g>
    </g>
   </g>
   <g id="patch_152">
    <path d="M 229.552941 621.037241 
L 229.552941 508.568276 
" style="fill:none;stroke:#000000;stroke-linecap:square;stroke-linejoin:miter;stroke-width:0.8;"/>
   </g>
   <g id="patch_153">
    <path d="M 360.847059 621.037241 
L 360.847059 508.568276 
" style="fill:none;stroke:#000000;stroke-linecap:square;stroke-linejoin:miter;stroke-width:0.8;"/>
   </g>
   <g id="patch_154">
    <path d="M 229.552941 621.037241 
L 360.847059 621.037241 
" style="fill:none;stroke:#000000;stroke-linecap:square;stroke-linejoin:miter;stroke-width:0.8;"/>
   </g>
   <g id="patch_155">
    <path d="M 229.552941 508.568276 
L 360.847059 508.568276 
" style="fill:none;stroke:#000000;stroke-linecap:square;stroke-linejoin:miter;stroke-width:0.8;"/>
   </g>
   <g id="text_27">
    <!-- Zurichsee -->
    <defs>
     <path d="M 5.609375 72.90625 
L 62.890625 72.90625 
L 62.890625 65.375 
L 16.796875 8.296875 
L 64.015625 8.296875 
L 64.015625 0 
L 4.5 0 
L 4.5 7.515625 
L 50.59375 64.59375 
L 5.609375 64.59375 
z
" id="DejaVuSans-5a"/>
    </defs>
    <g transform="translate(229.552941 502.568276)scale(0.12 -0.12)">
     <use xlink:href="#DejaVuSans-5a"/>
     <use x="68.505859" xlink:href="#DejaVuSans-75"/>
     <use x="131.884766" xlink:href="#DejaVuSans-72"/>
     <use x="172.998047" xlink:href="#DejaVuSans-69"/>
     <use x="200.78125" xlink:href="#DejaVuSans-63"/>
     <use x="255.761719" xlink:href="#DejaVuSans-68"/>
     <use x="319.140625" xlink:href="#DejaVuSans-73"/>
     <use x="371.240234" xlink:href="#DejaVuSans-65"/>
     <use x="432.763672" xlink:href="#DejaVuSans-65"/>
    </g>
   </g>
  </g>
  <g id="axes_12">
   <g id="patch_156">
    <path d="M 387.105882 621.037241 
L 518.4 621.037241 
L 518.4 508.568276 
L 387.105882 508.568276 
z
" style="fill:#ffffff;"/>
   </g>
   <g id="patch_157">
    <path clip-path="url(#p84bd26297e)" d="M 393.073797 621.037241 
L 432.859893 621.037241 
L 432.859893 620.819254 
L 393.073797 620.819254 
z
" style="fill:#00008b;"/>
   </g>
   <g id="patch_158">
    <path clip-path="url(#p84bd26297e)" d="M 432.859893 621.037241 
L 472.645989 621.037241 
L 472.645989 605.669606 
L 432.859893 605.669606 
z
" style="fill:#1e90ff;"/>
   </g>
   <g id="patch_159">
    <path clip-path="url(#p84bd26297e)" d="M 472.645989 621.037241 
L 512.432086 621.037241 
L 512.432086 565.452158 
L 472.645989 565.452158 
z
" style="fill:#40e0d0;"/>
   </g>
   <g id="patch_160">
    <path clip-path="url(#p84bd26297e)" d="M 393.073797 621.037241 
L 432.859893 621.037241 
L 432.859893 620.819254 
L 393.073797 620.819254 
z
" style="fill:#00008b;"/>
   </g>
   <g id="patch_161">
    <path clip-path="url(#p84bd26297e)" d="M 432.859893 621.037241 
L 472.645989 621.037241 
L 472.645989 605.669606 
L 432.859893 605.669606 
z
" style="fill:#1e90ff;"/>
   </g>
   <g id="patch_162">
    <path clip-path="url(#p84bd26297e)" d="M 472.645989 621.037241 
L 512.432086 621.037241 
L 512.432086 565.452158 
L 472.645989 565.452158 
z
" style="fill:#40e0d0;"/>
   </g>
   <g id="patch_163">
    <path clip-path="url(#p84bd26297e)" d="M 393.073797 621.037241 
L 432.859893 621.037241 
L 432.859893 620.819254 
L 393.073797 620.819254 
z
" style="fill:#00008b;"/>
   </g>
   <g id="patch_164">
    <path clip-path="url(#p84bd26297e)" d="M 432.859893 621.037241 
L 472.645989 621.037241 
L 472.645989 605.669606 
L 432.859893 605.669606 
z
" style="fill:#1e90ff;"/>
   </g>
   <g id="patch_165">
    <path clip-path="url(#p84bd26297e)" d="M 472.645989 621.037241 
L 512.432086 621.037241 
L 512.432086 565.452158 
L 472.645989 565.452158 
z
" style="fill:#40e0d0;"/>
   </g>
   <g id="matplotlib.axis_23"/>
   <g id="matplotlib.axis_24">
    <g id="ytick_34">
     <g id="line2d_34">
      <g>
       <use style="stroke:#000000;stroke-width:0.8;" x="387.105882" xlink:href="#m0b92bd7821" y="621.037241"/>
      </g>
     </g>
    </g>
    <g id="ytick_35">
     <g id="line2d_35">
      <g>
       <use style="stroke:#000000;stroke-width:0.8;" x="387.105882" xlink:href="#m0b92bd7821" y="582.672631"/>
      </g>
     </g>
    </g>
    <g id="ytick_36">
     <g id="line2d_36">
      <g>
       <use style="stroke:#000000;stroke-width:0.8;" x="387.105882" xlink:href="#m0b92bd7821" y="544.308021"/>
      </g>
     </g>
    </g>
   </g>
   <g id="patch_166">
    <path d="M 387.105882 621.037241 
L 387.105882 508.568276 
" style="fill:none;stroke:#000000;stroke-linecap:square;stroke-linejoin:miter;stroke-width:0.8;"/>
   </g>
   <g id="patch_167">
    <path d="M 518.4 621.037241 
L 518.4 508.568276 
" style="fill:none;stroke:#000000;stroke-linecap:square;stroke-linejoin:miter;stroke-width:0.8;"/>
   </g>
   <g id="patch_168">
    <path d="M 387.105882 621.037241 
L 518.4 621.037241 
" style="fill:none;stroke:#000000;stroke-linecap:square;stroke-linejoin:miter;stroke-width:0.8;"/>
   </g>
   <g id="patch_169">
    <path d="M 387.105882 508.568276 
L 518.4 508.568276 
" style="fill:none;stroke:#000000;stroke-linecap:square;stroke-linejoin:miter;stroke-width:0.8;"/>
   </g>
   <g id="text_28">
    <!-- Sempachsee -->
    <g transform="translate(387.105882 502.568276)scale(0.12 -0.12)">
     <use xlink:href="#DejaVuSans-53"/>
     <use x="63.476562" xlink:href="#DejaVuSans-65"/>
     <use x="125" xlink:href="#DejaVuSans-6d"/>
     <use x="222.412109" xlink:href="#DejaVuSans-70"/>
     <use x="285.888672" xlink:href="#DejaVuSans-61"/>
     <use x="347.167969" xlink:href="#DejaVuSans-63"/>
     <use x="402.148438" xlink:href="#DejaVuSans-68"/>
     <use x="465.527344" xlink:href="#DejaVuSans-73"/>
     <use x="517.626953" xlink:href="#DejaVuSans-65"/>
     <use x="579.150391" xlink:href="#DejaVuSans-65"/>
    </g>
   </g>
  </g>
  <g id="axes_13">
   <g id="patch_170">
    <path d="M 72 756 
L 203.294118 756 
L 203.294118 643.531034 
L 72 643.531034 
z
" style="fill:#ffffff;"/>
   </g>
   <g id="patch_171">
    <path clip-path="url(#p830aaa47c0)" d="M 77.967914 756 
L 117.754011 756 
L 117.754011 755.963554 
L 77.967914 755.963554 
z
" style="fill:#00008b;"/>
   </g>
   <g id="patch_172">
    <path clip-path="url(#p830aaa47c0)" d="M 117.754011 756 
L 157.540107 756 
L 157.540107 753.710112 
L 117.754011 753.710112 
z
" style="fill:#1e90ff;"/>
   </g>
   <g id="patch_173">
    <path clip-path="url(#p830aaa47c0)" d="M 157.540107 756 
L 197.326203 756 
L 197.326203 753.601732 
L 157.540107 753.601732 
z
" style="fill:#40e0d0;"/>
   </g>
   <g id="patch_174">
    <path clip-path="url(#p830aaa47c0)" d="M 77.967914 756 
L 117.754011 756 
L 117.754011 755.963554 
L 77.967914 755.963554 
z
" style="fill:#00008b;"/>
   </g>
   <g id="patch_175">
    <path clip-path="url(#p830aaa47c0)" d="M 117.754011 756 
L 157.540107 756 
L 157.540107 753.710112 
L 117.754011 753.710112 
z
" style="fill:#1e90ff;"/>
   </g>
   <g id="patch_176">
    <path clip-path="url(#p830aaa47c0)" d="M 157.540107 756 
L 197.326203 756 
L 197.326203 753.601732 
L 157.540107 753.601732 
z
" style="fill:#40e0d0;"/>
   </g>
   <g id="patch_177">
    <path clip-path="url(#p830aaa47c0)" d="M 77.967914 756 
L 117.754011 756 
L 117.754011 755.963554 
L 77.967914 755.963554 
z
" style="fill:#00008b;"/>
   </g>
   <g id="patch_178">
    <path clip-path="url(#p830aaa47c0)" d="M 117.754011 756 
L 157.540107 756 
L 157.540107 753.710112 
L 117.754011 753.710112 
z
" style="fill:#1e90ff;"/>
   </g>
   <g id="patch_179">
    <path clip-path="url(#p830aaa47c0)" d="M 157.540107 756 
L 197.326203 756 
L 197.326203 753.601732 
L 157.540107 753.601732 
z
" style="fill:#40e0d0;"/>
   </g>
   <g id="matplotlib.axis_25"/>
   <g id="matplotlib.axis_26">
    <g id="ytick_37">
     <g id="line2d_37">
      <g>
       <use style="stroke:#000000;stroke-width:0.8;" x="72" xlink:href="#m0b92bd7821" y="756"/>
      </g>
     </g>
     <g id="text_29">
      <!-- 0 -->
      <g transform="translate(58.6375 759.799219)scale(0.1 -0.1)">
       <use xlink:href="#DejaVuSans-30"/>
      </g>
     </g>
    </g>
    <g id="ytick_38">
     <g id="line2d_38">
      <g>
       <use style="stroke:#000000;stroke-width:0.8;" x="72" xlink:href="#m0b92bd7821" y="717.63539"/>
      </g>
     </g>
     <g id="text_30">
      <!-- 200 -->
      <g transform="translate(45.9125 721.434609)scale(0.1 -0.1)">
       <use xlink:href="#DejaVuSans-32"/>
       <use x="63.623047" xlink:href="#DejaVuSans-30"/>
       <use x="127.246094" xlink:href="#DejaVuSans-30"/>
      </g>
     </g>
    </g>
    <g id="ytick_39">
     <g id="line2d_39">
      <g>
       <use style="stroke:#000000;stroke-width:0.8;" x="72" xlink:href="#m0b92bd7821" y="679.27078"/>
      </g>
     </g>
     <g id="text_31">
      <!-- 400 -->
      <g transform="translate(45.9125 683.069999)scale(0.1 -0.1)">
       <use xlink:href="#DejaVuSans-34"/>
       <use x="63.623047" xlink:href="#DejaVuSans-30"/>
       <use x="127.246094" xlink:href="#DejaVuSans-30"/>
      </g>
     </g>
    </g>
    <g id="text_32">
     <!-- Pieces per 100 meters -->
     <g transform="translate(39.832812 755.93583)rotate(-90)scale(0.1 -0.1)">
      <use xlink:href="#DejaVuSans-50"/>
      <use x="60.271484" xlink:href="#DejaVuSans-69"/>
      <use x="88.054688" xlink:href="#DejaVuSans-65"/>
      <use x="149.578125" xlink:href="#DejaVuSans-63"/>
      <use x="204.558594" xlink:href="#DejaVuSans-65"/>
      <use x="266.082031" xlink:href="#DejaVuSans-73"/>
      <use x="318.181641" xlink:href="#DejaVuSans-20"/>
      <use x="349.96875" xlink:href="#DejaVuSans-70"/>
      <use x="413.445312" xlink:href="#DejaVuSans-65"/>
      <use x="474.96875" xlink:href="#DejaVuSans-72"/>
      <use x="516.082031" xlink:href="#DejaVuSans-20"/>
      <use x="547.869141" xlink:href="#DejaVuSans-31"/>
      <use x="611.492188" xlink:href="#DejaVuSans-30"/>
      <use x="675.115234" xlink:href="#DejaVuSans-30"/>
      <use x="738.738281" xlink:href="#DejaVuSans-20"/>
      <use x="770.525391" xlink:href="#DejaVuSans-6d"/>
      <use x="867.9375" xlink:href="#DejaVuSans-65"/>
      <use x="929.460938" xlink:href="#DejaVuSans-74"/>
      <use x="968.669922" xlink:href="#DejaVuSans-65"/>
      <use x="1030.193359" xlink:href="#DejaVuSans-72"/>
      <use x="1071.306641" xlink:href="#DejaVuSans-73"/>
     </g>
    </g>
   </g>
   <g id="patch_180">
    <path d="M 72 756 
L 72 643.531034 
" style="fill:none;stroke:#000000;stroke-linecap:square;stroke-linejoin:miter;stroke-width:0.8;"/>
   </g>
   <g id="patch_181">
    <path d="M 203.294118 756 
L 203.294118 643.531034 
" style="fill:none;stroke:#000000;stroke-linecap:square;stroke-linejoin:miter;stroke-width:0.8;"/>
   </g>
   <g id="patch_182">
    <path d="M 72 756 
L 203.294118 756 
" style="fill:none;stroke:#000000;stroke-linecap:square;stroke-linejoin:miter;stroke-width:0.8;"/>
   </g>
   <g id="patch_183">
    <path d="M 72 643.531034 
L 203.294118 643.531034 
" style="fill:none;stroke:#000000;stroke-linecap:square;stroke-linejoin:miter;stroke-width:0.8;"/>
   </g>
   <g id="text_33">
    <!-- Sihlsee -->
    <g transform="translate(72 637.531034)scale(0.12 -0.12)">
     <use xlink:href="#DejaVuSans-53"/>
     <use x="63.476562" xlink:href="#DejaVuSans-69"/>
     <use x="91.259766" xlink:href="#DejaVuSans-68"/>
     <use x="154.638672" xlink:href="#DejaVuSans-6c"/>
     <use x="182.421875" xlink:href="#DejaVuSans-73"/>
     <use x="234.521484" xlink:href="#DejaVuSans-65"/>
     <use x="296.044922" xlink:href="#DejaVuSans-65"/>
    </g>
   </g>
  </g>
  <g id="axes_14">
   <g id="patch_184">
    <path d="M 229.552941 756 
L 360.847059 756 
L 360.847059 643.531034 
L 229.552941 643.531034 
z
" style="fill:#ffffff;"/>
   </g>
   <g id="patch_185">
    <path clip-path="url(#pdd0e12bd75)" d="M 235.520856 756 
L 275.306952 756 
L 275.306952 755.638011 
L 235.520856 755.638011 
z
" style="fill:#00008b;"/>
   </g>
   <g id="patch_186">
    <path clip-path="url(#pdd0e12bd75)" d="M 275.306952 756 
L 315.093048 756 
L 315.093048 743.762361 
L 275.306952 743.762361 
z
" style="fill:#1e90ff;"/>
   </g>
   <g id="patch_187">
    <path clip-path="url(#pdd0e12bd75)" d="M 315.093048 756 
L 354.879144 756 
L 354.879144 740.166868 
L 315.093048 740.166868 
z
" style="fill:#40e0d0;"/>
   </g>
   <g id="patch_188">
    <path clip-path="url(#pdd0e12bd75)" d="M 235.520856 756 
L 275.306952 756 
L 275.306952 755.638011 
L 235.520856 755.638011 
z
" style="fill:#00008b;"/>
   </g>
   <g id="patch_189">
    <path clip-path="url(#pdd0e12bd75)" d="M 275.306952 756 
L 315.093048 756 
L 315.093048 743.762361 
L 275.306952 743.762361 
z
" style="fill:#1e90ff;"/>
   </g>
   <g id="patch_190">
    <path clip-path="url(#pdd0e12bd75)" d="M 315.093048 756 
L 354.879144 756 
L 354.879144 740.166868 
L 315.093048 740.166868 
z
" style="fill:#40e0d0;"/>
   </g>
   <g id="patch_191">
    <path clip-path="url(#pdd0e12bd75)" d="M 235.520856 756 
L 275.306952 756 
L 275.306952 755.638011 
L 235.520856 755.638011 
z
" style="fill:#00008b;"/>
   </g>
   <g id="patch_192">
    <path clip-path="url(#pdd0e12bd75)" d="M 275.306952 756 
L 315.093048 756 
L 315.093048 743.762361 
L 275.306952 743.762361 
z
" style="fill:#1e90ff;"/>
   </g>
   <g id="patch_193">
    <path clip-path="url(#pdd0e12bd75)" d="M 315.093048 756 
L 354.879144 756 
L 354.879144 740.166868 
L 315.093048 740.166868 
z
" style="fill:#40e0d0;"/>
   </g>
   <g id="matplotlib.axis_27"/>
   <g id="matplotlib.axis_28">
    <g id="ytick_40">
     <g id="line2d_40">
      <g>
       <use style="stroke:#000000;stroke-width:0.8;" x="229.552941" xlink:href="#m0b92bd7821" y="756"/>
      </g>
     </g>
    </g>
    <g id="ytick_41">
     <g id="line2d_41">
      <g>
       <use style="stroke:#000000;stroke-width:0.8;" x="229.552941" xlink:href="#m0b92bd7821" y="717.63539"/>
      </g>
     </g>
    </g>
    <g id="ytick_42">
     <g id="line2d_42">
      <g>
       <use style="stroke:#000000;stroke-width:0.8;" x="229.552941" xlink:href="#m0b92bd7821" y="679.27078"/>
      </g>
     </g>
    </g>
   </g>
   <g id="patch_194">
    <path d="M 229.552941 756 
L 229.552941 643.531034 
" style="fill:none;stroke:#000000;stroke-linecap:square;stroke-linejoin:miter;stroke-width:0.8;"/>
   </g>
   <g id="patch_195">
    <path d="M 360.847059 756 
L 360.847059 643.531034 
" style="fill:none;stroke:#000000;stroke-linecap:square;stroke-linejoin:miter;stroke-width:0.8;"/>
   </g>
   <g id="patch_196">
    <path d="M 229.552941 756 
L 360.847059 756 
" style="fill:none;stroke:#000000;stroke-linecap:square;stroke-linejoin:miter;stroke-width:0.8;"/>
   </g>
   <g id="patch_197">
    <path d="M 229.552941 643.531034 
L 360.847059 643.531034 
" style="fill:none;stroke:#000000;stroke-linecap:square;stroke-linejoin:miter;stroke-width:0.8;"/>
   </g>
   <g id="text_34">
    <!-- Greifensee -->
    <defs>
     <path d="M 59.515625 10.40625 
L 59.515625 29.984375 
L 43.40625 29.984375 
L 43.40625 38.09375 
L 69.28125 38.09375 
L 69.28125 6.78125 
Q 63.578125 2.734375 56.6875 0.65625 
Q 49.8125 -1.421875 42 -1.421875 
Q 24.90625 -1.421875 15.25 8.5625 
Q 5.609375 18.5625 5.609375 36.375 
Q 5.609375 54.25 15.25 64.234375 
Q 24.90625 74.21875 42 74.21875 
Q 49.125 74.21875 55.546875 72.453125 
Q 61.96875 70.703125 67.390625 67.28125 
L 67.390625 56.78125 
Q 61.921875 61.421875 55.765625 63.765625 
Q 49.609375 66.109375 42.828125 66.109375 
Q 29.4375 66.109375 22.71875 58.640625 
Q 16.015625 51.171875 16.015625 36.375 
Q 16.015625 21.625 22.71875 14.15625 
Q 29.4375 6.6875 42.828125 6.6875 
Q 48.046875 6.6875 52.140625 7.59375 
Q 56.25 8.5 59.515625 10.40625 
z
" id="DejaVuSans-47"/>
    </defs>
    <g transform="translate(229.552941 637.531034)scale(0.12 -0.12)">
     <use xlink:href="#DejaVuSans-47"/>
     <use x="77.490234" xlink:href="#DejaVuSans-72"/>
     <use x="118.572266" xlink:href="#DejaVuSans-65"/>
     <use x="180.095703" xlink:href="#DejaVuSans-69"/>
     <use x="207.878906" xlink:href="#DejaVuSans-66"/>
     <use x="243.083984" xlink:href="#DejaVuSans-65"/>
     <use x="304.607422" xlink:href="#DejaVuSans-6e"/>
     <use x="367.986328" xlink:href="#DejaVuSans-73"/>
     <use x="420.085938" xlink:href="#DejaVuSans-65"/>
     <use x="481.609375" xlink:href="#DejaVuSans-65"/>
    </g>
   </g>
  </g>
  <g id="axes_15">
   <g id="patch_198">
    <path d="M 387.105882 756 
L 518.4 756 
L 518.4 643.531034 
L 387.105882 643.531034 
z
" style="fill:#ffffff;"/>
   </g>
   <g id="patch_199">
    <path clip-path="url(#pdfe5594abd)" d="M 393.073797 756 
L 432.859893 756 
L 432.859893 755.811553 
L 393.073797 755.811553 
z
" style="fill:#00008b;"/>
   </g>
   <g id="patch_200">
    <path clip-path="url(#pdfe5594abd)" d="M 432.859893 756 
L 472.645989 756 
L 472.645989 749.080214 
L 432.859893 749.080214 
z
" style="fill:#1e90ff;"/>
   </g>
   <g id="patch_201">
    <path clip-path="url(#pdfe5594abd)" d="M 472.645989 756 
L 512.432086 756 
L 512.432086 744.668744 
L 472.645989 744.668744 
z
" style="fill:#40e0d0;"/>
   </g>
   <g id="patch_202">
    <path clip-path="url(#pdfe5594abd)" d="M 393.073797 756 
L 432.859893 756 
L 432.859893 755.811553 
L 393.073797 755.811553 
z
" style="fill:#00008b;"/>
   </g>
   <g id="patch_203">
    <path clip-path="url(#pdfe5594abd)" d="M 432.859893 756 
L 472.645989 756 
L 472.645989 749.080214 
L 432.859893 749.080214 
z
" style="fill:#1e90ff;"/>
   </g>
   <g id="patch_204">
    <path clip-path="url(#pdfe5594abd)" d="M 472.645989 756 
L 512.432086 756 
L 512.432086 744.668744 
L 472.645989 744.668744 
z
" style="fill:#40e0d0;"/>
   </g>
   <g id="patch_205">
    <path clip-path="url(#pdfe5594abd)" d="M 393.073797 756 
L 432.859893 756 
L 432.859893 755.811553 
L 393.073797 755.811553 
z
" style="fill:#00008b;"/>
   </g>
   <g id="patch_206">
    <path clip-path="url(#pdfe5594abd)" d="M 432.859893 756 
L 472.645989 756 
L 472.645989 749.080214 
L 432.859893 749.080214 
z
" style="fill:#1e90ff;"/>
   </g>
   <g id="patch_207">
    <path clip-path="url(#pdfe5594abd)" d="M 472.645989 756 
L 512.432086 756 
L 512.432086 744.668744 
L 472.645989 744.668744 
z
" style="fill:#40e0d0;"/>
   </g>
   <g id="matplotlib.axis_29"/>
   <g id="matplotlib.axis_30">
    <g id="ytick_43">
     <g id="line2d_43">
      <g>
       <use style="stroke:#000000;stroke-width:0.8;" x="387.105882" xlink:href="#m0b92bd7821" y="756"/>
      </g>
     </g>
    </g>
    <g id="ytick_44">
     <g id="line2d_44">
      <g>
       <use style="stroke:#000000;stroke-width:0.8;" x="387.105882" xlink:href="#m0b92bd7821" y="717.63539"/>
      </g>
     </g>
    </g>
    <g id="ytick_45">
     <g id="line2d_45">
      <g>
       <use style="stroke:#000000;stroke-width:0.8;" x="387.105882" xlink:href="#m0b92bd7821" y="679.27078"/>
      </g>
     </g>
    </g>
   </g>
   <g id="patch_208">
    <path d="M 387.105882 756 
L 387.105882 643.531034 
" style="fill:none;stroke:#000000;stroke-linecap:square;stroke-linejoin:miter;stroke-width:0.8;"/>
   </g>
   <g id="patch_209">
    <path d="M 518.4 756 
L 518.4 643.531034 
" style="fill:none;stroke:#000000;stroke-linecap:square;stroke-linejoin:miter;stroke-width:0.8;"/>
   </g>
   <g id="patch_210">
    <path d="M 387.105882 756 
L 518.4 756 
" style="fill:none;stroke:#000000;stroke-linecap:square;stroke-linejoin:miter;stroke-width:0.8;"/>
   </g>
   <g id="patch_211">
    <path d="M 387.105882 643.531034 
L 518.4 643.531034 
" style="fill:none;stroke:#000000;stroke-linecap:square;stroke-linejoin:miter;stroke-width:0.8;"/>
   </g>
   <g id="text_35">
    <!-- Zugersee -->
    <g transform="translate(387.105882 637.531034)scale(0.12 -0.12)">
     <use xlink:href="#DejaVuSans-5a"/>
     <use x="68.505859" xlink:href="#DejaVuSans-75"/>
     <use x="131.884766" xlink:href="#DejaVuSans-67"/>
     <use x="195.361328" xlink:href="#DejaVuSans-65"/>
     <use x="256.884766" xlink:href="#DejaVuSans-72"/>
     <use x="297.998047" xlink:href="#DejaVuSans-73"/>
     <use x="350.097656" xlink:href="#DejaVuSans-65"/>
     <use x="411.621094" xlink:href="#DejaVuSans-65"/>
    </g>
   </g>
  </g>
 </g>
 <defs>
  <clipPath id="pa6ec3bded0">
   <rect height="112.468966" width="131.294118" x="72" y="103.68"/>
  </clipPath>
  <clipPath id="p7a1ad97449">
   <rect height="112.468966" width="131.294118" x="229.552941" y="103.68"/>
  </clipPath>
  <clipPath id="pf80f66898e">
   <rect height="112.468966" width="131.294118" x="387.105882" y="103.68"/>
  </clipPath>
  <clipPath id="p9a7a7885dc">
   <rect height="112.468966" width="131.294118" x="72" y="238.642759"/>
  </clipPath>
  <clipPath id="pb91e3435ad">
   <rect height="112.468966" width="131.294118" x="229.552941" y="238.642759"/>
  </clipPath>
  <clipPath id="p0ac2127b6d">
   <rect height="112.468966" width="131.294118" x="387.105882" y="238.642759"/>
  </clipPath>
  <clipPath id="p1791fc1cce">
   <rect height="112.468966" width="131.294118" x="72" y="373.605517"/>
  </clipPath>
  <clipPath id="p81141d766e">
   <rect height="112.468966" width="131.294118" x="229.552941" y="373.605517"/>
  </clipPath>
  <clipPath id="p860e97dfb3">
   <rect height="112.468966" width="131.294118" x="387.105882" y="373.605517"/>
  </clipPath>
  <clipPath id="pfcc677844d">
   <rect height="112.468966" width="131.294118" x="72" y="508.568276"/>
  </clipPath>
  <clipPath id="p6221c259e9">
   <rect height="112.468966" width="131.294118" x="229.552941" y="508.568276"/>
  </clipPath>
  <clipPath id="p84bd26297e">
   <rect height="112.468966" width="131.294118" x="387.105882" y="508.568276"/>
  </clipPath>
  <clipPath id="p830aaa47c0">
   <rect height="112.468966" width="131.294118" x="72" y="643.531034"/>
  </clipPath>
  <clipPath id="pdd0e12bd75">
   <rect height="112.468966" width="131.294118" x="229.552941" y="643.531034"/>
  </clipPath>
  <clipPath id="pdfe5594abd">
   <rect height="112.468966" width="131.294118" x="387.105882" y="643.531034"/>
  </clipPath>
 </defs>
</svg>
